<?xml version="1.0" encoding="UTF-8"?>
<svg id="Graphic_Elements" data-name="Graphic Elements" xmlns="http://www.w3.org/2000/svg" xmlns:xlink="http://www.w3.org/1999/xlink" viewBox="0 0 1031.66 340.12">
  <defs>
    <style>
      .cls-1 {
        fill: #fff;
      }

      .cls-2 {
        fill: url(#linear-gradient);
      }
    </style>
    <linearGradient id="linear-gradient" x1="0" y1="78.94" x2="135" y2="78.94" gradientUnits="userSpaceOnUse">
      <stop offset="0" stop-color="#791a96"/>
      <stop offset="1" stop-color="#4c78df"/>
    </linearGradient>
  </defs>
  <path class="cls-2" d="m135,79.35c0-37.28-30.22-67.5-67.5-67.5S0,42.07,0,79.35c0,33.69,24.68,61.62,56.95,66.68v-47.17h-17.14v-19.51h17.14v-14.87c0-16.92,10.08-26.26,25.5-26.26,7.39,0,15.11,1.32,15.11,1.32v16.61h-8.51c-8.38,0-11,5.2-11,10.54v12.66h18.72l-2.99,19.51h-15.73v47.17c32.27-5.06,56.95-32.99,56.95-66.68Z"/>
  <path class="cls-1" d="m93.77,95.12l2.99-19.51h-18.72v-12.66c0-5.34,2.61-10.54,11-10.54h8.51v-16.61s-7.72-1.32-15.11-1.32c-15.42,0-25.5,9.34-25.5,26.26v14.87h-17.14v19.51h17.14v47.17c3.44.54,6.96.82,10.55.82s7.11-.28,10.55-.82v-47.17h15.73Z"/>
</svg>