<?xml version="1.0" encoding="UTF-8"?>
<svg id="Graphic_Elements" data-name="Graphic Elements" xmlns="http://www.w3.org/2000/svg" xmlns:xlink="http://www.w3.org/1999/xlink" viewBox="0 0 1031.66 340.12">
  <defs>
    <style>
      .cls-1 {
        fill: #fff;
      }

      .cls-2, .cls-3 {
        fill: none;
      }

      .cls-3 {
        clip-path: url(#clippath);
      }

      .cls-4 {
        fill: url(#linear-gradient);
      }
    </style>
    <clipPath id="clippath">
      <circle class="cls-2" cx="515.27" cy="73.86" r="71.37"/>
    </clipPath>
    <linearGradient id="linear-gradient" x1="441.41" y1="73.86" x2="589.13" y2="73.86" gradientUnits="userSpaceOnUse">
      <stop offset="0" stop-color="#791a96"/>
      <stop offset="1" stop-color="#4c78df"/>
    </linearGradient>
  </defs>
  <g class="cls-3">
    <circle class="cls-4" cx="515.27" cy="73.86" r="73.86"/>
  </g>
  <g>
    <path class="cls-1" d="m515.27,39.02c11.35,0,12.69.04,17.17.25,4.14.19,6.39.88,7.89,1.46,1.98.77,3.4,1.69,4.89,3.18,1.49,1.49,2.41,2.9,3.18,4.89.58,1.5,1.27,3.75,1.46,7.89.2,4.48.25,5.83.25,17.17s-.04,12.69-.25,17.17c-.19,4.14-.88,6.39-1.46,7.89-.77,1.98-1.69,3.4-3.18,4.89-1.49,1.49-2.9,2.41-4.89,3.18-1.5.58-3.75,1.27-7.89,1.46-4.48.2-5.82.25-17.17.25s-12.69-.04-17.17-.25c-4.14-.19-6.39-.88-7.89-1.46-1.98-.77-3.4-1.69-4.89-3.18-1.49-1.49-2.41-2.9-3.18-4.89-.58-1.5-1.27-3.75-1.46-7.89-.2-4.48-.25-5.83-.25-17.17s.04-12.69.25-17.17c.19-4.14.88-6.39,1.46-7.89.77-1.98,1.69-3.4,3.18-4.89,1.49-1.49,2.9-2.41,4.89-3.18,1.5-.58,3.75-1.27,7.89-1.46,4.48-.2,5.83-.25,17.17-.25m0-7.66c-11.54,0-12.99.05-17.52.26-4.52.21-7.61.92-10.32,1.98-2.79,1.09-5.16,2.54-7.53,4.9-2.36,2.36-3.82,4.73-4.9,7.53-1.05,2.7-1.77,5.79-1.98,10.32-.21,4.53-.26,5.98-.26,17.52s.05,12.99.26,17.52c.21,4.52.92,7.61,1.98,10.32,1.09,2.79,2.54,5.16,4.9,7.53,2.36,2.36,4.73,3.82,7.53,4.9,2.7,1.05,5.79,1.77,10.32,1.98,4.53.21,5.98.26,17.52.26s12.99-.05,17.52-.26c4.52-.21,7.61-.92,10.32-1.98,2.79-1.09,5.16-2.54,7.53-4.9,2.36-2.36,3.82-4.73,4.9-7.53,1.05-2.7,1.77-5.79,1.98-10.32.21-4.53.26-5.98.26-17.52s-.05-12.99-.26-17.52c-.21-4.52-.92-7.61-1.98-10.32-1.09-2.79-2.54-5.16-4.9-7.53-2.36-2.36-4.73-3.82-7.53-4.9-2.7-1.05-5.79-1.77-10.32-1.98-4.53-.21-5.98-.26-17.52-.26h0Z"/>
    <path class="cls-1" d="m515.27,52.04c-12.05,0-21.82,9.77-21.82,21.82s9.77,21.82,21.82,21.82,21.82-9.77,21.82-21.82-9.77-21.82-21.82-21.82Zm0,35.99c-7.82,0-14.17-6.34-14.17-14.17s6.34-14.17,14.17-14.17,14.17,6.34,14.17,14.17-6.34,14.17-14.17,14.17Z"/>
    <circle class="cls-1" cx="537.96" cy="51.17" r="5.1"/>
  </g>
</svg>