<?xml version="1.0" encoding="UTF-8"?>
<svg xmlns="http://www.w3.org/2000/svg" xmlns:xlink="http://www.w3.org/1999/xlink" viewBox="0 0 705.36 270.74">
  <defs>
    <style>
      .cls-1 {
        fill: url(#linear-gradient-2);
      }

      .cls-2 {
        clip-path: url(#clippath-2);
      }

      .cls-2, .cls-3, .cls-4, .cls-5, .cls-6 {
        fill: none;
      }

      .cls-7 {
        fill: url(#linear-gradient-17);
      }

      .cls-8 {
        fill: url(#_Áåçûìÿííûé_ãðàäèåíò_370);
        mix-blend-mode: lighten;
        opacity: .2;
      }

      .cls-9 {
        fill: #4e7ee0;
      }

      .cls-10 {
        fill: url(#_Áåçûìÿííûé_ãðàäèåíò_302);
      }

      .cls-11 {
        fill: #3f0e84;
      }

      .cls-12 {
        fill: url(#linear-gradient-15);
      }

      .cls-13 {
        fill: url(#linear-gradient-18);
      }

      .cls-14 {
        fill: url(#_Áåçûìÿííûé_ãðàäèåíò_300-3);
      }

      .cls-15 {
        fill: url(#_Áåçûìÿííûé_ãðàäèåíò_300-2);
      }

      .cls-16 {
        fill: url(#linear-gradient-14);
      }

      .cls-17 {
        fill: url(#_Áåçûìÿííûé_ãðàäèåíò_388-4);
      }

      .cls-18 {
        fill: url(#linear-gradient-6);
      }

      .cls-19 {
        fill: url(#linear-gradient-11);
      }

      .cls-20 {
        fill: #9be6fa;
      }

      .cls-21 {
        fill: #6fbde9;
      }

      .cls-22 {
        fill: url(#linear-gradient-10);
      }

      .cls-23 {
        fill: #97def4;
      }

      .cls-24 {
        fill: #15163a;
        opacity: .6;
      }

      .cls-25 {
        fill: url(#linear-gradient-16);
      }

      .cls-3 {
        isolation: isolate;
      }

      .cls-26 {
        fill: #77cef4;
      }

      .cls-27 {
        fill: url(#linear-gradient-5);
      }

      .cls-28 {
        fill: url(#_Áåçûìÿííûé_ãðàäèåíò_388);
      }

      .cls-29 {
        fill: url(#_Áåçûìÿííûé_ãðàäèåíò_302-2);
      }

      .cls-30 {
        fill: url(#linear-gradient-7);
      }

      .cls-5 {
        clip-path: url(#clippath);
      }

      .cls-31 {
        fill: url(#linear-gradient-12);
        stroke: #791a96;
        stroke-miterlimit: 10;
      }

      .cls-32 {
        fill: url(#linear-gradient-9);
      }

      .cls-33 {
        fill: url(#_Áåçûìÿííûé_ãðàäèåíò_300);
      }

      .cls-34 {
        fill: url(#linear-gradient-3);
      }

      .cls-6 {
        clip-path: url(#clippath-1);
      }

      .cls-35 {
        fill: url(#linear-gradient);
      }

      .cls-36 {
        fill: url(#_Áåçûìÿííûé_ãðàäèåíò_302-3);
      }

      .cls-37 {
        fill: url(#_Áåçûìÿííûé_ãðàäèåíò_388-3);
      }

      .cls-38 {
        fill: #b41187;
      }

      .cls-39 {
        fill: url(#linear-gradient-4);
      }

      .cls-40 {
        fill: url(#_Áåçûìÿííûé_ãðàäèåíò_388-2);
      }

      .cls-41 {
        fill: url(#linear-gradient-8);
      }

      .cls-42 {
        fill: url(#linear-gradient-13);
      }
    </style>
    <linearGradient id="linear-gradient" x1="33.16" y1="47.59" x2="177.99" y2="215.63" gradientUnits="userSpaceOnUse">
      <stop offset="0" stop-color="#791a96"/>
      <stop offset=".18" stop-color="#74229c"/>
      <stop offset=".45" stop-color="#6939ae"/>
      <stop offset=".8" stop-color="#575fcb"/>
      <stop offset="1" stop-color="#4c78df"/>
    </linearGradient>
    <linearGradient id="linear-gradient-2" x1="66.26" y1="19.07" x2="211.08" y2="187.11" xlink:href="#linear-gradient"/>
    <linearGradient id="linear-gradient-3" x1=".85" y1="75.44" x2="145.67" y2="243.48" xlink:href="#linear-gradient"/>
    <linearGradient id="linear-gradient-4" x1="-.06" y1="76.21" x2="144.77" y2="244.26" xlink:href="#linear-gradient"/>
    <linearGradient id="linear-gradient-5" x1="58.16" y1="26.04" x2="202.99" y2="194.08" xlink:href="#linear-gradient"/>
    <linearGradient id="linear-gradient-6" x1="23.13" y1="56.23" x2="167.96" y2="224.27" xlink:href="#linear-gradient"/>
    <linearGradient id="linear-gradient-7" x1="43.3" y1="38.85" x2="188.13" y2="206.89" xlink:href="#linear-gradient"/>
    <linearGradient id="_Áåçûìÿííûé_ãðàäèåíò_388" data-name="Áåçûìÿííûé ãðàäèåíò 388" x1="197.23" y1="200.77" x2="247.01" y2="200.77" gradientUnits="userSpaceOnUse">
      <stop offset="0" stop-color="#b41187"/>
      <stop offset=".23" stop-color="#b41187"/>
      <stop offset=".51" stop-color="#98dff6"/>
      <stop offset=".78" stop-color="#9be6fa"/>
      <stop offset="1" stop-color="#9be6fa"/>
    </linearGradient>
    <linearGradient id="linear-gradient-8" x1="197.21" y1="182.34" x2="248.26" y2="182.34" xlink:href="#linear-gradient"/>
    <linearGradient id="_Áåçûìÿííûé_ãðàäèåíò_388-2" data-name="Áåçûìÿííûé ãðàäèåíò 388" x1="197.21" y1="198" x2="248.26" y2="198" xlink:href="#_Áåçûìÿííûé_ãðàäèåíò_388"/>
    <linearGradient id="_Áåçûìÿííûé_ãðàäèåíò_300" data-name="Áåçûìÿííûé ãðàäèåíò 300" x1="554.35" y1="712.25" x2="578.43" y2="691.4" gradientTransform="translate(433.02 -521.82) rotate(30) skewX(-30)" gradientUnits="userSpaceOnUse">
      <stop offset="0" stop-color="#791a96"/>
      <stop offset=".18" stop-color="#74229c"/>
      <stop offset=".45" stop-color="#6939ae"/>
      <stop offset=".8" stop-color="#575fcb"/>
      <stop offset="1" stop-color="#4c78df"/>
    </linearGradient>
    <linearGradient id="_Áåçûìÿííûé_ãðàäèåíò_302" data-name="Áåçûìÿííûé ãðàäèåíò 302" x1="557.49" y1="709.53" x2="575.41" y2="694.01" gradientTransform="translate(433.02 -521.82) rotate(30) skewX(-30)" gradientUnits="userSpaceOnUse">
      <stop offset="0" stop-color="#550e8d"/>
      <stop offset=".26" stop-color="#4f168f"/>
      <stop offset=".68" stop-color="#3f2d95"/>
      <stop offset="1" stop-color="#31449c"/>
    </linearGradient>
    <clipPath id="clippath">
      <path class="cls-4" d="m220.89,172.86l-9.6-5.54c-.68-.39-.6-1.08.19-1.54l9.22-5.32c.79-.46,1.98-.5,2.66-.11l9.6,5.54c.68.39.6,1.08-.19,1.54l-9.22,5.32c-.79.46-1.98.5-2.66.11Z"/>
    </clipPath>
    <linearGradient id="linear-gradient-9" x1="197.21" y1="156.91" x2="248.26" y2="156.91" xlink:href="#linear-gradient"/>
    <linearGradient id="_Áåçûìÿííûé_ãðàäèåíò_388-3" data-name="Áåçûìÿííûé ãðàäèåíò 388" x1="197.21" y1="172.56" x2="248.26" y2="172.56" xlink:href="#_Áåçûìÿííûé_ãðàäèåíò_388"/>
    <linearGradient id="_Áåçûìÿííûé_ãðàäèåíò_300-2" data-name="Áåçûìÿííûé ãðàäèåíò 300" x1="528.91" y1="690.23" x2="552.99" y2="669.37" xlink:href="#_Áåçûìÿííûé_ãðàäèåíò_300"/>
    <linearGradient id="_Áåçûìÿííûé_ãðàäèåíò_302-2" data-name="Áåçûìÿííûé ãðàäèåíò 302" x1="532.05" y1="687.51" x2="549.98" y2="671.98" xlink:href="#_Áåçûìÿííûé_ãðàäèåíò_302"/>
    <clipPath id="clippath-1">
      <path class="cls-4" d="m220.89,147.43l-9.6-5.54c-.68-.39-.6-1.08.19-1.54l9.22-5.32c.79-.46,1.98-.5,2.66-.11l9.6,5.54c.68.39.6,1.08-.19,1.54l-9.22,5.32c-.79.46-1.98.5-2.66.11Z"/>
    </clipPath>
    <linearGradient id="linear-gradient-10" x1="197.21" y1="131.48" x2="248.26" y2="131.48" xlink:href="#linear-gradient"/>
    <linearGradient id="_Áåçûìÿííûé_ãðàäèåíò_388-4" data-name="Áåçûìÿííûé ãðàäèåíò 388" x1="197.21" y1="147.13" x2="248.26" y2="147.13" xlink:href="#_Áåçûìÿííûé_ãðàäèåíò_388"/>
    <linearGradient id="_Áåçûìÿííûé_ãðàäèåíò_300-3" data-name="Áåçûìÿííûé ãðàäèåíò 300" x1="503.48" y1="668.2" x2="527.56" y2="647.35" xlink:href="#_Áåçûìÿííûé_ãðàäèåíò_300"/>
    <linearGradient id="_Áåçûìÿííûé_ãðàäèåíò_302-3" data-name="Áåçûìÿííûé ãðàäèåíò 302" x1="506.62" y1="665.48" x2="524.55" y2="649.96" xlink:href="#_Áåçûìÿííûé_ãðàäèåíò_302"/>
    <linearGradient id="_Áåçûìÿííûé_ãðàäèåíò_370" data-name="Áåçûìÿííûé ãðàäèåíò 370" x1="221.63" y1="122.26" x2="221.63" y2="96.53" gradientUnits="userSpaceOnUse">
      <stop offset=".01" stop-color="#6fbde9"/>
      <stop offset=".03" stop-color="#6bb6e2"/>
      <stop offset=".21" stop-color="#5286b0"/>
      <stop offset=".38" stop-color="#3d5e87"/>
      <stop offset=".55" stop-color="#2d3f67"/>
      <stop offset=".71" stop-color="#222950"/>
      <stop offset=".87" stop-color="#1b1c42"/>
      <stop offset="1" stop-color="#19183e"/>
    </linearGradient>
    <clipPath id="clippath-2">
      <path class="cls-4" d="m220.89,122l-9.6-5.54c-.68-.39-.6-1.08.19-1.54l9.22-5.32c.79-.46,1.98-.5,2.66-.11l9.6,5.54c.68.39.6,1.08-.19,1.54l-9.22,5.32c-.79.46-1.98.5-2.66.11Z"/>
    </clipPath>
    <linearGradient id="linear-gradient-11" x1="197.37" y1="108.03" x2="249.73" y2="108.03" xlink:href="#linear-gradient"/>
    <linearGradient id="linear-gradient-12" x1="197.37" y1="113.84" x2="249.73" y2="113.84" xlink:href="#linear-gradient"/>
    <linearGradient id="linear-gradient-13" x1="486.67" y1="653.36" x2="511.33" y2="632" gradientTransform="translate(433.02 -521.82) rotate(30) skewX(-30)" xlink:href="#linear-gradient"/>
    <linearGradient id="linear-gradient-14" x1="255.74" y1="144.7" x2="691.74" y2="153.37" xlink:href="#linear-gradient"/>
    <linearGradient id="linear-gradient-15" x1="255.53" y1="155.41" x2="691.53" y2="164.08" xlink:href="#linear-gradient"/>
    <linearGradient id="linear-gradient-16" x1="255.55" y1="154.23" x2="691.55" y2="162.89" xlink:href="#linear-gradient"/>
    <linearGradient id="linear-gradient-17" x1="255.6" y1="151.8" x2="691.6" y2="160.47" xlink:href="#linear-gradient"/>
    <linearGradient id="linear-gradient-18" x1="255.63" y1="150.63" x2="691.63" y2="159.29" xlink:href="#linear-gradient"/>
  </defs>
  <g class="cls-3">
    <g id="OBJECTS">
      <path class="cls-35" d="m204.1,75.49c-1.09-.88-2.41-1.62-3.89-2.22-1.49-.6-3.07-1-4.72-1.17-1.6-.17-3.25-.09-4.89.28-1.62.34-3.29,1-4.95,1.96L0,182.29l7.62,6.09c2.73,2.16,5.47,3.31,8.39,3.48,2.97.17,5.91-.58,9.01-2.33l186.59-108.06-7.52-5.98Z"/>
      <path class="cls-1" d="m148.04,76.48c-1.09-.88-2.41-1.62-3.89-2.22-1.49-.6-3.07-1-4.72-1.17-1.6-.17-3.25-.09-4.89.28-1.62.34-3.29,1-4.95,1.96l-32.47,19.79,7.62,6.08c2.73,2.16,5.47,3.31,8.39,3.48,2.97.17,5.91-.58,9.01-2.33l33.41-19.9-7.52-5.98Z"/>
      <path class="cls-34" d="m64.3,187.95c1.09.88,2.41,1.62,3.89,2.22,1.49.6,3.07,1,4.72,1.17,1.6.17,3.25.09,4.89-.28,1.62-.34,3.29-1,4.95-1.96l34.35-20.4-7.62-6.08c-2.73-2.16-5.47-3.31-8.39-3.48-2.97-.17-5.91.58-9.01,2.33l-35.29,20.51,7.52,5.98Z"/>
      <g>
        <path class="cls-39" d="m145.75,171.2l27.9,16.09c-.52.44-1.08.84-1.68,1.16l-102.35,59.1v-23.43c0-5.55,2.96-10.67,7.76-13.44l68.37-39.48Z"/>
        <g>
          <path class="cls-27" d="m142.01,16.35v23.43c0,5.55-2.96,10.67-7.77,13.45l-96.26,55.5c-5.13-3.64-8.25-9.65-8.25-16.06,0-7.09,3.8-13.65,9.93-17.22l102.35-59.1Z"/>
          <path class="cls-18" d="m103.79,114.54l-28.03,16.29-6.13-3.52v-.11l-29.98-17.32c-.6-.32-1.15-.73-1.67-1.15l27.89-16.09,37.92,21.9Z"/>
          <path class="cls-30" d="m181.89,171.23c0,6.41-3.12,12.41-8.24,16.06l-66.15-38.13,28.08-16.27,6.43,3.71v.11l29.96,17.29c6.13,3.57,9.93,10.14,9.93,17.23Z"/>
        </g>
      </g>
      <g>
        <path class="cls-23" d="m77.95,239.44l-1.79,1.03c-.46.27-.83-.02-.83-.63v-24.98c0-.61.37-1.33.83-1.59l1.79-1.03c.46-.27.83.02.83.63v24.98c0,.61-.37,1.33-.83,1.59Z"/>
        <path class="cls-9" d="m77.95,212.23l-.43.25v24.53c0,.61-.37,1.33-.83,1.59l-1.36.79v.45c0,.61.37.9.83.63l1.79-1.03c.46-.27.83-.98.83-1.59v-24.98c0-.61-.37-.9-.83-.63Z"/>
        <path class="cls-23" d="m84.54,235.63l-1.79,1.03c-.46.27-.83-.02-.83-.63v-24.98c0-.61.37-1.33.83-1.59l1.79-1.03c.46-.27.83.02.83.63v24.98c0,.61-.37,1.33-.83,1.59Z"/>
        <path class="cls-23" d="m91.13,231.82l-1.79,1.03c-.46.27-.83-.02-.83-.63v-24.98c0-.61.37-1.33.83-1.59l1.79-1.03c.46-.27.83.02.83.63v24.98c0,.61-.37,1.33-.83,1.59Z"/>
        <path class="cls-23" d="m97.73,228.02l-1.79,1.03c-.46.27-.83-.02-.83-.63v-24.98c0-.61.37-1.33.83-1.59l1.79-1.03c.46-.27.83.02.83.63v24.98c0,.61-.37,1.33-.83,1.59Z"/>
        <path class="cls-9" d="m84.54,208.42l-.43.25v24.53c0,.61-.37,1.33-.83,1.59l-1.36.79v.45c0,.61.37.9.83.63l1.79-1.03c.46-.27.83-.98.83-1.59v-24.98c0-.61-.37-.9-.83-.63Z"/>
        <path class="cls-9" d="m91.13,204.62l-.43.25v24.53c0,.61-.37,1.33-.83,1.59l-1.36.79v.45c0,.61.37.9.83.63l1.79-1.03c.46-.27.83-.98.83-1.59v-24.98c0-.61-.37-.9-.83-.63Z"/>
        <path class="cls-9" d="m97.73,200.81l-.43.25v24.53c0,.61-.37,1.33-.83,1.59l-1.36.79v.45c0,.61.37.9.83.63l1.79-1.03c.46-.27.83-.98.83-1.59v-24.98c0-.61-.37-.9-.83-.63Z"/>
      </g>
      <g>
        <path class="cls-23" d="m117.35,59.46l-1.79,1.03c-.46.27-.83-.02-.83-.63v-24.98c0-.61.37-1.33.83-1.59l1.79-1.03c.46-.27.83.02.83.63v24.98c0,.61-.37,1.33-.83,1.59Z"/>
        <path class="cls-9" d="m117.35,32.25l-.43.25v24.53c0,.61-.37,1.33-.83,1.59l-1.36.79v.45c0,.61.37.9.83.63l1.79-1.03c.46-.27.83-.98.83-1.59v-24.98c0-.61-.37-.9-.83-.63Z"/>
        <path class="cls-23" d="m123.94,55.65l-1.79,1.03c-.46.27-.83-.02-.83-.63v-24.98c0-.61.37-1.33.83-1.59l1.79-1.03c.46-.27.83.02.83.63v24.98c0,.61-.37,1.33-.83,1.59Z"/>
        <path class="cls-23" d="m130.53,51.84l-1.79,1.03c-.46.27-.83-.02-.83-.63v-24.98c0-.61.37-1.33.83-1.59l1.79-1.03c.46-.27.83.02.83.63v24.98c0,.61-.37,1.33-.83,1.59Z"/>
        <path class="cls-23" d="m137.13,48.04l-1.79,1.03c-.46.27-.83-.02-.83-.63v-24.98c0-.61.37-1.33.83-1.59l1.79-1.03c.46-.27.83.02.83.63v24.98c0,.61-.37,1.33-.83,1.59Z"/>
        <path class="cls-9" d="m123.94,28.44l-.43.25v24.53c0,.61-.37,1.33-.83,1.59l-1.36.79v.45c0,.61.37.9.83.63l1.79-1.03c.46-.27.83-.98.83-1.59v-24.98c0-.61-.37-.9-.83-.63Z"/>
        <path class="cls-9" d="m130.53,24.64l-.43.25v24.53c0,.61-.37,1.33-.83,1.59l-1.36.79v.45c0,.61.37.9.83.63l1.79-1.03c.46-.27.83-.98.83-1.59v-24.98c0-.61-.37-.9-.83-.63Z"/>
        <path class="cls-9" d="m137.13,20.83l-.43.25v24.53c0,.61-.37,1.33-.83,1.59l-1.36.79v.45c0,.61.37.9.83.63l1.79-1.03c.46-.27.83-.98.83-1.59v-24.98c0-.61-.37-.9-.83-.63Z"/>
      </g>
      <g>
        <path class="cls-23" d="m143.57,197.32c0,.6-.48,1.08-1.08,1.08s-1.08-.48-1.08-1.08.48-1.08,1.08-1.08,1.08.48,1.08,1.08Z"/>
        <path class="cls-23" d="m152.48,190.08c0,1.02-.83,1.85-1.85,1.85s-1.85-.83-1.85-1.85.83-1.85,1.85-1.85,1.85.83,1.85,1.85Z"/>
        <circle class="cls-23" cx="148.37" cy="188.9" r=".47"/>
        <path class="cls-23" d="m157.34,179.63c0,.51-.41.92-.92.92s-.92-.41-.92-.92.41-.92.92-.92.92.41.92.92Z"/>
        <path class="cls-23" d="m152.21,171.8c0,.36-.29.65-.65.65s-.65-.29-.65-.65.29-.65.65-.65.65.29.65.65Z"/>
        <path class="cls-23" d="m144.76,166.81c0,.65-.53,1.18-1.18,1.18s-1.18-.53-1.18-1.18.53-1.18,1.18-1.18,1.18.53,1.18,1.18Z"/>
        <path class="cls-23" d="m152.48,158.44c0,1.32-1.07,2.39-2.39,2.39s-2.39-1.07-2.39-2.39,1.07-2.39,2.39-2.39,2.39,1.07,2.39,2.39Z"/>
        <circle class="cls-23" cx="147.04" cy="156.92" r=".66"/>
        <path class="cls-23" d="m152.8,161.31c0,.43-.35.78-.78.78s-.78-.35-.78-.78.35-.78.78-.78.78.35.78.78Z"/>
        <path class="cls-23" d="m153.37,159.69c0,.21-.17.37-.37.37s-.37-.17-.37-.37.17-.37.37-.37.37.17.37.37Z"/>
        <circle class="cls-23" cx="157.16" cy="168.55" r="1.08"/>
      </g>
      <g>
        <path class="cls-23" d="m173.17,183.7l-16.38-9.69c-.53-.3-.75-.85-.75-1.55l.15-22.6c0-.7-.19-1.08.34-.78l.43-.12,16.47,9.51c.53.3.95,1.12.95,1.82v22.93l-.12.32c0,.7-.56.47-1.08.17Z"/>
        <path class="cls-9" d="m157.9,173.7c-.53-.3-.95-1.12-.95-1.82v-22.93l-.44-.26c-.53-.3-.95.02-.95.72v23.23c0,.7.43,1.51.95,1.82l16.91,9.76c.53.3.95-.02.95-.72v-.3l-16.47-9.51Z"/>
      </g>
      <path class="cls-24" d="m219.83,212.37l-17.8-10.28c-1.27-.73-1.11-2.01.35-2.85l17.09-9.87c1.46-.84,3.67-.94,4.94-.2l17.8,10.28c1.27.73,1.11,2.01-.35,2.85l-17.09,9.87c-1.46.84-3.67.94-4.94.2Z"/>
      <path class="cls-28" d="m221.95,215.22c-.99,0-1.93-.2-2.63-.6l-20.97-12.11c-.72-.41-1.11-1-1.11-1.64,0-.76.56-1.52,1.53-2.08l20.14-11.63c1.78-1.03,4.48-1.13,6.03-.24l20.97,12.11c.72.41,1.11,1,1.11,1.64,0,.76-.56,1.52-1.53,2.08l-20.14,11.63c-.97.56-2.21.85-3.4.85Zm-2.42-.97c1.43.83,3.95.72,5.61-.24l20.14-11.63c.84-.48,1.32-1.11,1.32-1.72,0-.49-.32-.94-.9-1.28l-20.97-12.11c-1.43-.83-3.95-.72-5.61.24l-20.14,11.63c-.84.48-1.32,1.11-1.32,1.72,0,.49.32.94.9,1.28l20.97,12.11Z"/>
      <path class="cls-41" d="m243.07,166.6h-8.83l-9.83-5.67c-1.27-.73-3.48-.64-4.94.2l-9.47,5.47h-8.83v25.55h0c-.04.49.24.97.85,1.32l17.8,10.28c1.27.73,3.48.64,4.94-.2l17.09-9.87c.76-.44,1.16-.99,1.2-1.53h0v-25.55Z"/>
      <path class="cls-40" d="m241.86,193.27l-17.09,9.87c-1.46.84-3.67.94-4.94.2l-17.8-10.28c-.61-.35-.88-.83-.85-1.32h0v.41h0c-.04.49.24.97.85,1.32l17.8,10.28c1.27.73,3.48.64,4.94-.2l17.09-9.87c.76-.44,1.16-.99,1.2-1.53h0v-.41h0c-.04.53-.44,1.09-1.2,1.53Z"/>
      <path class="cls-38" d="m201.74,192.56h0v-25.55h8.83l9.47-5.47c1.46-.84,3.67-.94,4.94-.2l9.83,5.67h8.27v-.41h-8.83l-9.83-5.67c-1.27-.73-3.48-.64-4.94.2l-9.47,5.47h-8.83v25.55h0c-.04.49.24.97.85,1.32l.1.06c-.29-.29-.42-.63-.39-.97Z"/>
      <path class="cls-20" d="m242.57,167.08v25.52h0c-.02.3-.17.61-.42.9.58-.41.89-.88.92-1.35h0v-25.49c-.18.12-.35.25-.5.41Z"/>
      <path class="cls-33" d="m219.83,178.21l-17.8-10.28c-1.27-.73-1.11-2.01.35-2.85l17.09-9.87c1.46-.84,3.67-.94,4.94-.2l17.8,10.28c1.27.73,1.11,2.01-.35,2.85l-17.09,9.87c-1.46.84-3.67.94-4.94.2Z"/>
      <path class="cls-20" d="m242.22,165.28l-17.8-10.28c-.66-.38-1.56-.53-2.49-.48.67.04,1.31.2,1.8.48l17.8,10.28c1.27.73,1.11,2.01-.35,2.85l-17.09,9.87c-.7.41-1.58.64-2.45.69,1.07.06,2.25-.17,3.14-.69l17.09-9.87c1.46-.84,1.62-2.12.35-2.85Z"/>
      <path class="cls-10" d="m220.42,175.24l-13.25-7.65c-.94-.54-.82-1.49.26-2.12l12.73-7.35c1.09-.63,2.73-.7,3.68-.15l13.25,7.65c.94.54.82,1.49-.26,2.12l-12.73,7.35c-1.09.63-2.73.7-3.68.15Z"/>
      <path class="cls-23" d="m220.89,172.86l-9.6-5.54c-.68-.39-.6-1.08.19-1.54l9.22-5.32c.79-.46,1.98-.5,2.66-.11l9.6,5.54c.68.39.6,1.08-.19,1.54l-9.22,5.32c-.79.46-1.98.5-2.66.11Z"/>
      <path class="cls-38" d="m220.63,178.21l-17.8-10.28c-1.27-.73-1.11-2.01.35-2.85l17.09-9.87c.69-.4,1.56-.63,2.41-.68-1.09-.08-2.29.16-3.21.68l-17.09,9.87c-1.46.84-1.62,2.12-.35,2.85l17.8,10.28c.66.38,1.59.54,2.53.48-.65-.05-1.26-.2-1.73-.48Z"/>
      <g class="cls-5">
        <path class="cls-9" d="m211.47,166.53l9.22-5.33c.79-.46,1.98-.5,2.66-.11l9.61,5.55c.15.09.26.19.34.3.23-.38.13-.78-.34-1.05l-9.61-5.55c-.68-.39-1.88-.34-2.66.11l-9.22,5.33c-.61.35-.8.85-.53,1.24.11-.17.28-.34.53-.49Z"/>
        <path class="cls-21" d="m211.47,167.44l9.22-5.33c.79-.46,1.98-.5,2.66-.11l9.61,5.55c.12.07.21.15.28.23.3-.4.22-.85-.28-1.14l-9.61-5.55c-.68-.39-1.88-.34-2.66.11l-9.22,5.33c-.65.38-.81.91-.47,1.3.11-.14.26-.28.47-.4Z"/>
        <path class="cls-26" d="m211.09,168.84c.1-.11.22-.21.38-.3l9.22-5.33c.79-.46,1.98-.5,2.66-.11l9.61,5.55c.07.04.13.09.19.14.41-.42.36-.93-.19-1.24l-9.61-5.55c-.68-.39-1.88-.34-2.66.11l-9.22,5.33c-.7.41-.84,1-.38,1.4Z"/>
      </g>
      <g>
        <path class="cls-23" d="m228.26,197.03l-.99.57c-.25.15-.46,0-.46-.35v-13.79c0-.34.21-.73.46-.88l.99-.57c.25-.15.46,0,.46.35v13.79c0,.34-.21.73-.46.88Z"/>
        <path class="cls-9" d="m228.26,182.01l-.24.14v13.54c0,.34-.21.73-.46.88l-.75.43v.25c0,.34.21.49.46.35l.99-.57c.25-.15.46-.54.46-.88v-13.79c0-.34-.21-.49-.46-.35Z"/>
        <path class="cls-23" d="m231.9,194.93l-.99.57c-.25.15-.46,0-.46-.35v-13.79c0-.34.21-.73.46-.88l.99-.57c.25-.15.46,0,.46.35v13.79c0,.34-.21.73-.46.88Z"/>
        <path class="cls-23" d="m235.54,192.83l-.99.57c-.25.15-.46,0-.46-.35v-13.79c0-.34.21-.73.46-.88l.99-.57c.25-.15.46,0,.46.35v13.79c0,.34-.21.73-.46.88Z"/>
        <path class="cls-23" d="m239.17,190.73l-.99.57c-.25.15-.46,0-.46-.35v-13.79c0-.34.21-.73.46-.88l.99-.57c.25-.15.46,0,.46.35v13.79c0,.34-.21.73-.46.88Z"/>
        <path class="cls-9" d="m231.9,179.91l-.24.14v13.54c0,.34-.21.73-.46.88l-.75.43v.25c0,.34.21.49.46.35l.99-.57c.25-.15.46-.54.46-.88v-13.79c0-.34-.21-.49-.46-.35Z"/>
        <path class="cls-9" d="m235.54,177.81l-.24.14v13.54c0,.34-.21.73-.46.88l-.75.43v.25c0,.34.21.49.46.35l.99-.57c.25-.15.46-.54.46-.88v-13.79c0-.34-.21-.49-.46-.35Z"/>
        <path class="cls-9" d="m239.17,175.71l-.24.14v13.54c0,.34-.21.73-.46.88l-.75.43v.25c0,.34.21.49.46.35l.99-.57c.25-.15.46-.54.46-.88v-13.79c0-.34-.21-.49-.46-.35Z"/>
      </g>
      <path class="cls-11" d="m218.36,198.72c-.12,0-.24-.04-.36-.11l-12.86-7.42c-.45-.26-.8-.92-.8-1.51v-14.59c0-.33.12-.59.32-.71.18-.1.4-.09.62.04l12.86,7.42c.45.26.8.92.8,1.51v14.59c0,.33-.12.59-.32.71-.08.05-.17.07-.26.07Zm-13.43-24.11s-.08,0-.11.03c-.11.06-.17.23-.17.45v14.59c0,.47.3,1.04.64,1.24l12.86,7.42c.09.05.21.1.32.04.11-.06.17-.23.17-.45v-14.59c0-.47-.3-1.04-.64-1.24l-12.86-7.42c-.06-.03-.13-.07-.21-.07Z"/>
      <g>
        <path class="cls-23" d="m206.86,177.95c0,.4-.28.56-.63.36-.35-.2-.63-.68-.63-1.08s.28-.56.63-.36c.35.2.63.68.63,1.08Z"/>
        <path class="cls-23" d="m206.86,179.98c0,.4-.28.56-.63.36-.35-.2-.63-.68-.63-1.08s.28-.56.63-.36c.35.2.63.68.63,1.08Z"/>
        <path class="cls-23" d="m206.86,182.01c0,.4-.28.56-.63.36-.35-.2-.63-.68-.63-1.08s.28-.56.63-.36c.35.2.63.68.63,1.08Z"/>
        <path class="cls-9" d="m206.55,182.13c-.35-.2-.63-.68-.63-1.08,0-.07.01-.14.03-.2-.2,0-.34.16-.34.44,0,.4.28.88.63,1.08.28.16.52.08.59-.17-.08,0-.18-.02-.28-.08Z"/>
        <path class="cls-9" d="m206.55,180.1c-.35-.2-.63-.68-.63-1.08,0-.07.01-.14.03-.2-.2,0-.34.16-.34.44,0,.4.28.88.63,1.08.28.16.52.08.59-.17-.08,0-.18-.02-.28-.08Z"/>
        <path class="cls-9" d="m206.55,178.07c-.35-.2-.63-.68-.63-1.08,0-.07.01-.14.03-.2-.2,0-.34.16-.34.44,0,.4.28.88.63,1.08.28.16.52.08.59-.17-.08,0-.18-.02-.28-.08Z"/>
      </g>
      <path class="cls-11" d="m217.2,191.44l-.41-.24c-.13-.07-.23-.27-.23-.45v-1.99c0-.17.1-.25.23-.18l.41.24c.13.07.23.27.23.45v1.99c0,.17-.1.25-.23.18Z"/>
      <path class="cls-32" d="m243.07,141.17h-8.83l-9.83-5.67c-1.27-.73-3.48-.64-4.94.2l-9.47,5.47h-8.83v25.55h0c-.04.49.24.97.85,1.32l17.8,10.28c1.27.73,3.48.64,4.94-.2l17.09-9.87c.76-.44,1.16-.99,1.2-1.53h0v-25.55Z"/>
      <path class="cls-37" d="m241.86,167.84l-17.09,9.87c-1.46.84-3.67.94-4.94.2l-17.8-10.28c-.61-.35-.88-.83-.85-1.32h0v.41h0c-.04.49.24.97.85,1.32l17.8,10.28c1.27.73,3.48.64,4.94-.2l17.09-9.87c.76-.44,1.16-.99,1.2-1.53h0v-.41h0c-.04.53-.44,1.09-1.2,1.53Z"/>
      <path class="cls-38" d="m201.74,167.13h0v-25.55h8.83l9.47-5.47c1.46-.84,3.67-.94,4.94-.2l9.83,5.67h8.27v-.41h-8.83l-9.83-5.67c-1.27-.73-3.48-.64-4.94.2l-9.47,5.47h-8.83v25.55h0c-.04.49.24.97.85,1.32l.1.06c-.29-.29-.42-.63-.39-.97Z"/>
      <path class="cls-20" d="m242.57,141.65v25.52h0c-.02.3-.17.61-.42.9.58-.41.89-.88.92-1.35h0v-25.49c-.18.12-.35.25-.5.41Z"/>
      <path class="cls-15" d="m219.83,152.77l-17.8-10.28c-1.27-.73-1.11-2.01.35-2.85l17.09-9.87c1.46-.84,3.67-.94,4.94-.2l17.8,10.28c1.27.73,1.11,2.01-.35,2.85l-17.09,9.87c-1.46.84-3.67.94-4.94.2Z"/>
      <path class="cls-20" d="m242.22,139.85l-17.8-10.28c-.66-.38-1.56-.53-2.49-.48.67.04,1.31.2,1.8.48l17.8,10.28c1.27.73,1.11,2.01-.35,2.85l-17.09,9.87c-.7.41-1.58.64-2.45.69,1.07.06,2.25-.17,3.14-.69l17.09-9.87c1.46-.84,1.62-2.12.35-2.85Z"/>
      <path class="cls-29" d="m220.42,149.81l-13.25-7.65c-.94-.54-.82-1.49.26-2.12l12.73-7.35c1.09-.63,2.73-.7,3.68-.15l13.25,7.65c.94.54.82,1.49-.26,2.12l-12.73,7.35c-1.09.63-2.73.7-3.68.15Z"/>
      <path class="cls-23" d="m220.89,147.43l-9.6-5.54c-.68-.39-.6-1.08.19-1.54l9.22-5.32c.79-.46,1.98-.5,2.66-.11l9.6,5.54c.68.39.6,1.08-.19,1.54l-9.22,5.32c-.79.46-1.98.5-2.66.11Z"/>
      <path class="cls-38" d="m220.63,152.77l-17.8-10.28c-1.27-.73-1.11-2.01.35-2.85l17.09-9.87c.69-.4,1.56-.63,2.41-.68-1.09-.08-2.29.16-3.21.68l-17.09,9.87c-1.46.84-1.62,2.12-.35,2.85l17.8,10.28c.66.38,1.59.54,2.53.48-.65-.05-1.26-.2-1.73-.48Z"/>
      <g class="cls-6">
        <path class="cls-9" d="m211.47,141.1l9.22-5.33c.79-.46,1.98-.5,2.66-.11l9.61,5.55c.15.09.26.19.34.3.23-.38.13-.78-.34-1.05l-9.61-5.55c-.68-.39-1.88-.34-2.66.11l-9.22,5.33c-.61.35-.8.85-.53,1.24.11-.17.28-.34.53-.49Z"/>
        <path class="cls-21" d="m211.47,142l9.22-5.33c.79-.46,1.98-.5,2.66-.11l9.61,5.55c.12.07.21.15.28.23.3-.4.22-.85-.28-1.14l-9.61-5.55c-.68-.39-1.88-.34-2.66.11l-9.22,5.33c-.65.38-.81.91-.47,1.3.11-.14.26-.28.47-.4Z"/>
        <path class="cls-26" d="m211.09,143.4c.1-.11.22-.21.38-.3l9.22-5.33c.79-.46,1.98-.5,2.66-.11l9.61,5.55c.07.04.13.09.19.14.41-.42.36-.93-.19-1.24l-9.61-5.55c-.68-.39-1.88-.34-2.66.11l-9.22,5.33c-.7.41-.84,1-.38,1.4Z"/>
      </g>
      <path class="cls-22" d="m243.07,115.74h-8.83l-9.83-5.67c-1.27-.73-3.48-.64-4.94.2l-9.47,5.47h-8.83v25.55h0c-.04.49.24.97.85,1.32l17.8,10.28c1.27.73,3.48.64,4.94-.2l17.09-9.87c.76-.44,1.16-.99,1.2-1.53h0v-25.55Z"/>
      <path class="cls-17" d="m241.86,142.41l-17.09,9.87c-1.46.84-3.67.94-4.94.2l-17.8-10.28c-.61-.35-.88-.83-.85-1.32h0v.41h0c-.04.49.24.97.85,1.32l17.8,10.28c1.27.73,3.48.64,4.94-.2l17.09-9.87c.76-.44,1.16-.99,1.2-1.53h0v-.41h0c-.04.53-.44,1.09-1.2,1.53Z"/>
      <path class="cls-38" d="m201.74,141.69h0v-25.55h8.83l9.47-5.47c1.46-.84,3.67-.94,4.94-.2l9.83,5.67h8.27v-.41h-8.83l-9.83-5.67c-1.27-.73-3.48-.64-4.94.2l-9.47,5.47h-8.83v25.55h0c-.04.49.24.97.85,1.32l.1.06c-.29-.29-.42-.63-.39-.97Z"/>
      <path class="cls-20" d="m242.57,116.21v25.52h0c-.02.3-.17.61-.42.9.58-.41.89-.88.92-1.35h0v-25.49c-.18.12-.35.25-.5.41Z"/>
      <path class="cls-14" d="m219.83,127.34l-17.8-10.28c-1.27-.73-1.11-2.01.35-2.85l17.09-9.87c1.46-.84,3.67-.94,4.94-.2l17.8,10.28c1.27.73,1.11,2.01-.35,2.85l-17.09,9.87c-1.46.84-3.67.94-4.94.2Z"/>
      <path class="cls-20" d="m242.22,114.41l-17.8-10.28c-.66-.38-1.56-.53-2.49-.48.67.04,1.31.2,1.8.48l17.8,10.28c1.27.73,1.11,2.01-.35,2.85l-17.09,9.87c-.7.41-1.58.64-2.45.69,1.07.06,2.25-.17,3.14-.69l17.09-9.87c1.46-.84,1.62-2.12.35-2.85Z"/>
      <path class="cls-36" d="m220.42,124.38l-13.25-7.65c-.94-.54-.82-1.49.26-2.12l12.73-7.35c1.09-.63,2.73-.7,3.68-.15l13.25,7.65c.94.54.82,1.49-.26,2.12l-12.73,7.35c-1.09.63-2.73.7-3.68.15Z"/>
      <path class="cls-8" d="m227.52,96.53l-12.2,1-1.23,20.41h0c0,.17.1.33.31.44l6.41,3.7c.46.26,1.25.23,1.78-.07l6.15-3.55c.27-.16.42-.36.43-.55h0s-1.64-21.38-1.64-21.38Z"/>
      <path class="cls-23" d="m220.89,122l-9.6-5.54c-.68-.39-.6-1.08.19-1.54l9.22-5.32c.79-.46,1.98-.5,2.66-.11l9.6,5.54c.68.39.6,1.08-.19,1.54l-9.22,5.32c-.79.46-1.98.5-2.66.11Z"/>
      <path class="cls-38" d="m220.63,127.34l-17.8-10.28c-1.27-.73-1.11-2.01.35-2.85l17.09-9.87c.69-.4,1.56-.63,2.41-.68-1.09-.08-2.29.16-3.21.68l-17.09,9.87c-1.46.84-1.62,2.12-.35,2.85l17.8,10.28c.66.38,1.59.54,2.53.48-.65-.05-1.26-.2-1.73-.48Z"/>
      <g class="cls-2">
        <path class="cls-9" d="m211.47,115.66l9.22-5.33c.79-.46,1.98-.5,2.66-.11l9.61,5.55c.15.09.26.19.34.3.23-.38.13-.78-.34-1.05l-9.61-5.55c-.68-.39-1.88-.34-2.66.11l-9.22,5.33c-.61.35-.8.85-.53,1.24.11-.17.28-.34.53-.49Z"/>
        <path class="cls-21" d="m211.47,116.57l9.22-5.33c.79-.46,1.98-.5,2.66-.11l9.61,5.55c.12.07.21.15.28.23.3-.4.22-.85-.28-1.14l-9.61-5.55c-.68-.39-1.88-.34-2.66.11l-9.22,5.33c-.65.38-.81.91-.47,1.3.11-.14.26-.28.47-.4Z"/>
        <path class="cls-26" d="m211.09,117.97c.1-.11.22-.21.38-.3l9.22-5.33c.79-.46,1.98-.5,2.66-.11l9.61,5.55c.07.04.13.09.19.14.41-.42.36-.93-.19-1.24l-9.61-5.55c-.68-.39-1.88-.34-2.66.11l-9.22,5.33c-.7.41-.84,1-.38,1.4Z"/>
      </g>
      <g>
        <path class="cls-23" d="m228.26,146.16l-.99.57c-.25.15-.46,0-.46-.35v-13.79c0-.34.21-.73.46-.88l.99-.57c.25-.15.46,0,.46.35v13.79c0,.34-.21.73-.46.88Z"/>
        <path class="cls-9" d="m228.26,131.15l-.24.14v13.54c0,.34-.21.73-.46.88l-.75.43v.25c0,.34.21.49.46.35l.99-.57c.25-.15.46-.54.46-.88v-13.79c0-.34-.21-.49-.46-.35Z"/>
        <path class="cls-23" d="m231.9,144.06l-.99.57c-.25.15-.46,0-.46-.35v-13.79c0-.34.21-.73.46-.88l.99-.57c.25-.15.46,0,.46.35v13.79c0,.34-.21.73-.46.88Z"/>
        <path class="cls-23" d="m235.54,141.96l-.99.57c-.25.15-.46,0-.46-.35v-13.79c0-.34.21-.73.46-.88l.99-.57c.25-.15.46,0,.46.35v13.79c0,.34-.21.73-.46.88Z"/>
        <path class="cls-23" d="m239.17,139.86l-.99.57c-.25.15-.46,0-.46-.35v-13.79c0-.34.21-.73.46-.88l.99-.57c.25-.15.46,0,.46.35v13.79c0,.34-.21.73-.46.88Z"/>
        <path class="cls-9" d="m231.9,129.05l-.24.14v13.54c0,.34-.21.73-.46.88l-.75.43v.25c0,.34.21.49.46.35l.99-.57c.25-.15.46-.54.46-.88v-13.79c0-.34-.21-.49-.46-.35Z"/>
        <path class="cls-9" d="m235.54,126.95l-.24.14v13.54c0,.34-.21.73-.46.88l-.75.43v.25c0,.34.21.49.46.35l.99-.57c.25-.15.46-.54.46-.88v-13.79c0-.34-.21-.49-.46-.35Z"/>
        <path class="cls-9" d="m239.17,124.85l-.24.14v13.54c0,.34-.21.73-.46.88l-.75.43v.25c0,.34.21.49.46.35l.99-.57c.25-.15.46-.54.46-.88v-13.79c0-.34-.21-.49-.46-.35Z"/>
      </g>
      <path class="cls-11" d="m218.36,147.85c-.12,0-.24-.04-.36-.11l-12.86-7.42c-.45-.26-.8-.92-.8-1.51v-14.59c0-.33.12-.59.32-.71.18-.1.4-.09.62.04l12.86,7.42c.45.26.8.92.8,1.51v14.59c0,.33-.12.59-.32.71-.08.05-.17.07-.26.07Zm-13.43-24.11s-.08,0-.11.03c-.11.06-.17.23-.17.45v14.59c0,.47.3,1.04.64,1.24l12.86,7.42c.09.05.21.1.32.04.11-.06.17-.23.17-.45v-14.59c0-.47-.3-1.04-.64-1.24l-12.86-7.42c-.06-.03-.13-.07-.21-.07Z"/>
      <g>
        <path class="cls-23" d="m206.86,127.09c0,.4-.28.56-.63.36-.35-.2-.63-.68-.63-1.08s.28-.56.63-.36c.35.2.63.68.63,1.08Z"/>
        <path class="cls-23" d="m206.86,129.12c0,.4-.28.56-.63.36-.35-.2-.63-.68-.63-1.08s.28-.56.63-.36c.35.2.63.68.63,1.08Z"/>
        <path class="cls-23" d="m206.86,131.15c0,.4-.28.56-.63.36-.35-.2-.63-.68-.63-1.08s.28-.56.63-.36c.35.2.63.68.63,1.08Z"/>
        <path class="cls-9" d="m206.55,131.26c-.35-.2-.63-.68-.63-1.08,0-.07.01-.14.03-.2-.2,0-.34.16-.34.44,0,.4.28.88.63,1.08.28.16.52.08.59-.17-.08,0-.18-.02-.28-.08Z"/>
        <path class="cls-9" d="m206.55,129.23c-.35-.2-.63-.68-.63-1.08,0-.07.01-.14.03-.2-.2,0-.34.16-.34.44,0,.4.28.88.63,1.08.28.16.52.08.59-.17-.08,0-.18-.02-.28-.08Z"/>
        <path class="cls-9" d="m206.55,127.2c-.35-.2-.63-.68-.63-1.08,0-.07.01-.14.03-.2-.2,0-.34.16-.34.44,0,.4.28.88.63,1.08.28.16.52.08.59-.17-.08,0-.18-.02-.28-.08Z"/>
      </g>
      <path class="cls-11" d="m217.2,140.57l-.41-.24c-.13-.07-.23-.27-.23-.45v-1.99c0-.17.1-.25.23-.18l.41.24c.13.07.23.27.23.45v1.99c0,.17-.1.25-.23.18Z"/>
      <g>
        <path class="cls-23" d="m217.61,118.56c0,.46-.38.84-.84.84s-.84-.38-.84-.84.38-.84.84-.84.84.38.84.84Z"/>
        <path class="cls-23" d="m224.55,112.92c0,.79-.64,1.44-1.44,1.44s-1.44-.64-1.44-1.44.64-1.44,1.44-1.44,1.44.64,1.44,1.44Z"/>
        <circle class="cls-23" cx="221.34" cy="112.01" r=".37"/>
        <path class="cls-23" d="m228.33,104.8c0,.4-.32.72-.72.72s-.72-.32-.72-.72.32-.72.72-.72.72.32.72.72Z"/>
        <path class="cls-23" d="m224.34,98.7c0,.28-.23.51-.51.51s-.51-.23-.51-.51.23-.51.51-.51.51.23.51.51Z"/>
        <path class="cls-23" d="m218.53,94.81c0,.51-.41.92-.92.92s-.92-.41-.92-.92.41-.92.92-.92.92.41.92.92Z"/>
        <path class="cls-23" d="m224.55,88.3c0,1.03-.83,1.86-1.86,1.86s-1.86-.83-1.86-1.86.83-1.86,1.86-1.86,1.86.83,1.86,1.86Z"/>
        <circle class="cls-23" cx="220.31" cy="87.12" r=".51"/>
        <path class="cls-23" d="m224.79,90.53c0,.33-.27.6-.6.6s-.6-.27-.6-.6.27-.6.6-.6.6.27.6.6Z"/>
        <path class="cls-23" d="m225.24,89.27c0,.16-.13.29-.29.29s-.29-.13-.29-.29.13-.29.29-.29.29.13.29.29Z"/>
        <circle class="cls-23" cx="228.19" cy="96.17" r=".84"/>
      </g>
      <g>
        <path class="cls-23" d="m217.29,173.74l-12.33-7.29c-.4-.23-.56-.64-.56-1.17l.11-17.01c0-.53-.14-.81.26-.58l.32-.09,12.39,7.16c.4.23.72.84.72,1.37v17.26l-.09.24c0,.53-.42.35-.81.13Z"/>
        <path class="cls-9" d="m205.81,166.21c-.4-.23-.72-.84-.72-1.37v-17.26l-.33-.19c-.4-.23-.72.01-.72.54v17.48c0,.53.32,1.14.72,1.37l12.73,7.35c.4.23.72-.01.72-.54v-.23l-12.39-7.16Z"/>
      </g>
      <g>
        <path class="cls-19" d="m244.42,98.6h-13.81l-3.83-2.2c-1.98-1.14-5.44-1-7.73.32l-3.8,2.21h-13.81v9.27h0c-.06.77.38,1.52,1.33,2.07l16.31,9.41c1.98,1.14,5.44,1,7.73-.32l15.72-9.09c1.19-.69,1.82-1.55,1.88-2.39h.01v-9.27Z"/>
        <path class="cls-31" d="m242.52,109.62l-15.72,9.09c-2.29,1.32-5.75,1.46-7.73.32l-16.31-9.41c-.95-.55-1.38-1.3-1.33-2.07h0v.64h0c-.06.77.38,1.52,1.33,2.07l16.31,9.41c1.98,1.14,5.44,1,7.73-.32l15.72-9.09c1.19-.69,1.82-1.55,1.88-2.39h.01v-.64h-.01c-.06.84-.69,1.7-1.88,2.39Z"/>
        <path class="cls-38" d="m202.32,108.84h0v-9.27h13.81l3.8-2.21c2.29-1.32,5.75-1.46,7.73-.32l3.83,2.2h12.94v-.64h-13.81l-3.83-2.2c-1.98-1.14-5.44-1-7.73.32l-3.8,2.21h-13.81v9.27h0c-.06.77.38,1.52,1.33,2.07l.16.09c-.45-.46-.65-.98-.61-1.52Z"/>
        <path class="cls-42" d="m219.08,110.4l-16.31-9.41c-1.98-1.14-1.73-3.14.55-4.46l15.72-9.09c2.29-1.32,5.75-1.46,7.73-.32l16.31,9.41c1.98,1.14,1.73,3.14-.55,4.46l-15.72,9.09c-2.29,1.32-5.75,1.46-7.73.32Z"/>
        <path class="cls-20" d="m243.08,96.53l-16.31-9.41c-1.03-.59-2.45-.84-3.9-.75,1.06.06,2.04.31,2.81.75l16.31,9.41c1.98,1.14,1.73,3.14-.55,4.46l-15.72,9.09c-1.1.64-2.48,1-3.83,1.07,1.67.1,3.51-.26,4.92-1.07l15.72-9.09c2.29-1.32,2.54-3.32.55-4.46Z"/>
        <path class="cls-38" d="m220.33,110.4l-16.31-9.41c-1.98-1.14-1.73-3.14.55-4.46l15.72-9.09c1.09-.63,2.44-.98,3.77-1.07-1.7-.12-3.59.24-5.02,1.07l-15.72,9.09c-2.29,1.32-2.54,3.32-.55,4.46l16.31,9.41c1.04.6,2.49.84,3.96.75-1.02-.07-1.97-.32-2.71-.75Z"/>
        <ellipse class="cls-20" cx="222.93" cy="98.76" rx="11.28" ry="6.51"/>
        <path class="cls-9" d="m214.95,96.58c4.4-2.54,11.54-2.54,15.95,0,1.67.96,2.7,2.15,3.1,3.39.67-2.04-.37-4.24-3.1-5.82-4.4-2.54-11.54-2.54-15.95,0-2.74,1.58-3.77,3.77-3.1,5.82.41-1.24,1.44-2.43,3.1-3.39Z"/>
      </g>
      <g>
        <path class="cls-16" d="m305.14,131c11.94,0,21.77,3.64,29.48,10.91s11.56,16.39,11.56,27.33-3.79,20.03-11.37,28.02c-7.58,7.98-16.7,11.97-27.36,11.97h-49.72v-31.79l46.25.38c2.19,0,3.98-.8,5.39-2.43s2.12-3.54,2.12-5.76c0-4.81-3.02-7.23-9.06-7.23-12.47,0-22.74-3.98-30.84-11.97-8.09-7.98-12.14-17.97-12.14-29.95,0-10.68,4.01-19.67,12.04-26.94,8.03-7.28,17.5-10.91,28.42-10.91h78.04l-32.95,32.76h-46.25c-2.06,0-3.76.42-5.11,1.27s-2.15,2.31-2.41,4.39c0,3.76,1.35,6.37,4.05,7.79,2.7,1.44,5.97,2.15,9.83,2.15Z"/>
        <path class="cls-12" d="m356.26,134.04l26.02-26.2h61.99l-26.13,26.2h-61.87Zm25.19.05l27.75-26.25v101.4h-27.75v-75.15Z"/>
        <path class="cls-25" d="m426.16,176.29l68.01-68.4h23.9v101.35h-27.75v-13.09h-43.53l24.79-24.67h18.74l-.07-26.85-64.18,64.55.09-32.89Z"/>
        <path class="cls-7" d="m586.09,184.01v25.23h-12.7c-13.49,0-24.84-4.88-34.02-14.63-9.19-9.75-13.78-21.41-13.78-34.97,0-14.35,5.3-26.57,15.89-36.63,10.6-10.08,23.41-15.12,38.46-15.12h38.51l-26.19,26.02h-13.49c-7.21,0-13.42,2.49-18.69,7.5-5.28,5-7.91,11.09-7.91,18.24,0,6.49,2.22,12.18,6.66,17.05,4.42,4.88,9.79,7.32,16.09,7.32h11.17Z"/>
        <path class="cls-13" d="m602.08,135.71l27.74-27.87v101.4h-27.74v-73.53Zm23.9,16.2l43.93-44.07h35.46l-45.27,45.59,20.62,20.46v35.16l-37.59-37.2-17.14,17.16v-37.1Z"/>
      </g>
    </g>
  </g>
</svg>