<svg xmlns="http://www.w3.org/2000/svg" xmlns:xlink="http://www.w3.org/1999/xlink" viewBox="0 0 253.61 271.77"><defs><radialGradient id="a" cx="128.24" cy="82.13" r="82.13" gradientTransform="translate(95.64 -66.63) rotate(45)" gradientUnits="userSpaceOnUse"><stop offset="0" stop-color="#e82156"/><stop offset="0.01" stop-color="#e62155" stop-opacity="0.99"/><stop offset="0.16" stop-color="#aa183f" stop-opacity="0.73"/><stop offset="0.32" stop-color="#76112c" stop-opacity="0.51"/><stop offset="0.47" stop-color="#4b0b1c" stop-opacity="0.33"/><stop offset="0.62" stop-color="#2b0610" stop-opacity="0.18"/><stop offset="0.76" stop-color="#130307" stop-opacity="0.08"/><stop offset="0.89" stop-color="#050102" stop-opacity="0.02"/><stop offset="1" stop-opacity="0"/></radialGradient><linearGradient id="b" x1="127.14" y1="271.77" x2="127.14" y2="187.09" gradientUnits="userSpaceOnUse"><stop offset="0" stop-color="#020230" stop-opacity="0"/><stop offset="0.18" stop-color="#020532" stop-opacity="0.01"/><stop offset="0.31" stop-color="#020d3a" stop-opacity="0.05"/><stop offset="0.43" stop-color="#021a47" stop-opacity="0.12"/><stop offset="0.55" stop-color="#022d5a" stop-opacity="0.22"/><stop offset="0.65" stop-color="#024672" stop-opacity="0.34"/><stop offset="0.76" stop-color="#02658f" stop-opacity="0.5"/><stop offset="0.86" stop-color="#0189b2" stop-opacity="0.68"/><stop offset="0.95" stop-color="#01b2d9" stop-opacity="0.89"/><stop offset="1" stop-color="#01c8ef"/></linearGradient><linearGradient id="c" x1="84.07" y1="271.77" x2="84.07" y2="187.09" xlink:href="#b"/><linearGradient id="d" x1="170.21" y1="271.77" x2="170.21" y2="187.09" xlink:href="#b"/><radialGradient id="e" cx="127.44" cy="94" r="82.88" gradientUnits="userSpaceOnUse"><stop offset="0" stop-color="#d3113c"/><stop offset="0.12" stop-color="#a90e30" stop-opacity="0.8"/><stop offset="0.28" stop-color="#760921" stop-opacity="0.56"/><stop offset="0.44" stop-color="#4b0615" stop-opacity="0.36"/><stop offset="0.6" stop-color="#2b030c" stop-opacity="0.2"/><stop offset="0.74" stop-color="#130205" stop-opacity="0.09"/><stop offset="0.88" stop-color="#050001" stop-opacity="0.02"/><stop offset="1" stop-opacity="0"/></radialGradient><linearGradient id="f" x1="70.39" y1="190.75" x2="142.21" y2="190.75" gradientUnits="userSpaceOnUse"><stop offset="0" stop-color="#01c8ef"/><stop offset="0.13" stop-color="#04b1dd"/><stop offset="0.55" stop-color="#0e6ba7"/><stop offset="0.85" stop-color="#154085"/><stop offset="1" stop-color="#172f78"/></linearGradient><radialGradient id="g" cx="57.66" cy="136.89" r="160.39" gradientUnits="userSpaceOnUse"><stop offset="0" stop-color="#01c8ef"/><stop offset="0.14" stop-color="#03bae4"/><stop offset="0.4" stop-color="#0895c8"/><stop offset="0.76" stop-color="#115a9a"/><stop offset="1" stop-color="#172f78"/></radialGradient><linearGradient id="h" x1="70.39" y1="152.61" x2="142.21" y2="152.61" xlink:href="#f"/><radialGradient id="i" cx="57.66" cy="98.76" r="160.39" xlink:href="#g"/><linearGradient id="j" x1="70.39" y1="114.48" x2="142.21" y2="114.48" xlink:href="#f"/><radialGradient id="k" cx="57.66" cy="60.62" r="160.39" xlink:href="#g"/><radialGradient id="l" cx="71.81" cy="70.29" r="110.27" gradientUnits="userSpaceOnUse"><stop offset="0" stop-color="#ff5e89"/><stop offset="1" stop-color="#d3113c"/></radialGradient></defs><g style="isolation:isolate"><circle cx="128.24" cy="82.13" r="82.13" transform="translate(-20.51 114.74) rotate(-45)" style="opacity:0.6000000000000001;mix-blend-mode:lighten;fill:url(#a)"/><rect x="150.98" y="45.21" width="2.01" height="2.01" style="fill:#d3113c"/><rect x="155.25" y="45.21" width="2.01" height="2.01" style="fill:#d3113c"/><rect x="159.52" y="45.21" width="2.01" height="2.01" style="fill:#e82156"/><rect x="163.79" y="45.21" width="2.01" height="2.01" style="fill:#d3113c"/><rect x="177.38" y="45.21" width="2.01" height="2.01" style="fill:#d3113c"/><rect x="163.79" y="59.52" width="2.01" height="2.01" style="fill:#d3113c"/><rect x="163.79" y="68.48" width="2.01" height="2.01" transform="translate(329.6 138.96) rotate(180)" style="fill:#d3113c"/><rect x="163.79" y="72.54" width="2.01" height="2.01" transform="translate(329.6 147.09) rotate(180)" style="fill:#e82156"/><rect x="163.79" y="76.61" width="2.01" height="2.01" transform="translate(329.6 155.22) rotate(180)" style="fill:#d3113c"/><rect x="173.57" y="71.05" width="2.01" height="2.01" transform="translate(349.15 144.11) rotate(180)" style="fill:#d3113c"/><rect x="176.97" y="67.96" width="2.01" height="2.01" transform="translate(355.95 137.93) rotate(180)" style="fill:#d3113c"/><rect x="181.65" y="45.21" width="2.01" height="2.01" style="fill:#e82156"/><rect x="99.04" y="76.22" width="2.01" height="2.01" transform="translate(200.08 154.45) rotate(180)" style="fill:#e82156"/><rect x="94.76" y="76.22" width="2.01" height="2.01" transform="translate(191.53 154.45) rotate(180)" style="fill:#d3113c"/><rect x="80.17" y="55.05" width="2.01" height="2.01" transform="translate(162.35 112.11) rotate(180)" style="fill:#d3113c"/><rect x="80.17" y="50.9" width="2.01" height="2.01" transform="translate(162.35 103.81) rotate(180)" style="fill:#d3113c"/><rect x="80.17" y="46.75" width="2.01" height="2.01" transform="translate(162.35 95.5) rotate(180)" style="fill:#d3113c"/><rect x="81.18" y="76.22" width="2.01" height="2.01" transform="translate(164.36 154.45) rotate(180)" style="fill:#d3113c"/><rect x="94.76" y="61.91" width="2.01" height="2.01" transform="translate(191.53 125.83) rotate(180)" style="fill:#d3113c"/><rect x="94.76" y="52.96" width="2.01" height="2.01" style="fill:#d3113c"/><rect x="94.76" y="48.89" width="2.01" height="2.01" style="fill:#e82156"/><rect x="94.76" y="44.83" width="2.01" height="2.01" style="fill:#d3113c"/><rect x="76.9" y="76.22" width="2.01" height="2.01" transform="translate(155.81 154.45) rotate(180)" style="fill:#e82156"/><rect x="32.69" y="204.13" width="0.47" height="9.16" style="fill:#172f78"/><rect x="32.69" y="215.44" width="0.47" height="2.94" style="fill:#03a7d3"/><rect x="210.4" y="40.58" width="0.47" height="9.16" style="fill:#03a7d3"/><rect x="210.4" y="51.84" width="0.47" height="2.62" style="fill:#172f78"/><rect x="210.4" y="56.65" width="0.47" height="2.62" style="fill:#172f78"/><rect x="229.35" y="179.54" width="0.47" height="9.16" style="fill:#172f78"/><rect x="229.35" y="190.81" width="0.47" height="2.62" style="fill:#03a7d3"/><rect x="229.35" y="195.62" width="0.47" height="2.62" style="fill:#03a7d3"/><rect x="229.35" y="200.43" width="0.47" height="7.43" style="fill:#03a7d3"/><rect x="28.15" y="166.97" width="0.47" height="2.94" style="fill:#172f78"/><rect x="28.15" y="143.65" width="0.47" height="9.29" style="fill:#172f78"/><rect x="48.15" y="108.16" width="0.47" height="2.94" style="fill:#172f78"/><rect x="48.15" y="96.85" width="0.47" height="9.16" style="fill:#03a7d3"/><rect x="48.15" y="84.84" width="0.47" height="9.29" style="fill:#172f78"/><rect x="48.15" y="71.04" width="0.47" height="9.29" style="fill:#172f78"/><polygon points="83.61 187.09 83.61 271.77 170.67 271.77 170.67 188.54 83.61 187.09" style="opacity:0.30000000000000004;mix-blend-mode:lighten;fill:url(#b)"/><polygon points="83.61 187.09 83.61 271.77 84.53 271.77 84.53 188.54 83.61 187.09" style="opacity:0.6000000000000001;mix-blend-mode:lighten;fill:url(#c)"/><polygon points="169.75 187.09 169.75 271.77 170.67 271.77 170.67 188.54 169.75 187.09" style="opacity:0.6000000000000001;mix-blend-mode:lighten;fill:url(#d)"/><circle cx="127.44" cy="94" r="82.88" style="opacity:0.6000000000000001;mix-blend-mode:lighten;fill:url(#e)"/><path d="M104.83,136.43a1.28,1.28,0,1,1-1.27-1.28A1.27,1.27,0,0,1,104.83,136.43Z" style="fill:#172f78;opacity:0.4"/><path d="M123.46,117.58a5.06,5.06,0,1,1-5.06-5A5.06,5.06,0,0,1,123.46,117.58Z" style="fill:#172f78;opacity:0.4"/><path d="M120.51,117.58a2.11,2.11,0,1,1-2.11-2.1A2.11,2.11,0,0,1,120.51,117.58Z" style="fill:#172f78;opacity:0.8"/><circle cx="98.44" cy="110.09" r="2.58" style="fill:#03a7d3;opacity:0.4"/><circle cx="98.44" cy="110.09" r="1.27" style="fill:#03a7d3;opacity:0.8"/><path d="M79.05,200.32a.78.78,0,1,1-.78-.78A.78.78,0,0,1,79.05,200.32Z" style="fill:#03a7d3;opacity:0.4"/><path d="M70.17,62.34c17.44-5.06,38.08-7.91,60.1-7.72,2.9,0,5.78.1,8.63.22C158.23,56.61,165.11,77,153.45,86c-5.35,4.1-11.8,4.06-14.55,4s-5.73-.2-8.63-.23c-22-.18-42.66,2.67-60.1,7.73C52.57,101.79,51.52,83.9,57.68,73A22.27,22.27,0,0,1,70.17,62.34Z" style="fill:#172f78;opacity:0.6000000000000001"/><path d="M65.23,98.53c-4.66,0-7.31-2-8.78-3.94-4.24-5.59-2.7-15.42.91-21.82A22.58,22.58,0,0,1,70.06,62h0C88.13,56.74,109,54,130.27,54.24c2.88,0,5.79.1,8.64.23,9.72.88,17.54,6.8,19.93,15.08,1.86,6.44-.11,12.85-5.16,16.71-5.45,4.18-12,4.15-14.79,4.12s-5.75-.21-8.63-.23c-21.25-.16-42,2.49-60,7.71A21.1,21.1,0,0,1,65.23,98.53Zm5-35.83A21.89,21.89,0,0,0,58,73.13c-3.49,6.2-5,15.67-1,21,2.59,3.41,7.09,4.44,13,3,18-5.24,38.87-7.93,60.18-7.74,2.88,0,5.79.1,8.64.23s9.06.06,14.31-4c4.8-3.67,6.67-9.76,4.9-15.9-2.31-8-9.87-13.69-19.26-14.54-2.83-.13-5.72-.2-8.6-.23C109,54.84,88.27,57.48,70.28,62.7Z" style="fill:#03a7d3"/><path d="M127.34,234a12.93,12.93,0,0,1-6.3-1.51L78.64,208c-1.76-1-2.73-2.39-2.73-3.87s1-2.85,2.73-3.87l42.17-24.52a14,14,0,0,1,12.62,0l42.39,24.48c1.76,1,2.73,2.39,2.73,3.87s-1,2.85-2.73,3.87L133.65,232.5A12.94,12.94,0,0,1,127.34,234Zm-.22-59a12.1,12.1,0,0,0-5.91,1.41L79,201c-1.51.87-2.34,2-2.34,3.18s.83,2.32,2.33,3.19l42.4,24.48a13.09,13.09,0,0,0,11.82,0l42.18-24.53c1.5-.87,2.33-2,2.33-3.18s-.83-2.32-2.33-3.19L133,176.44A12.1,12.1,0,0,0,127.12,175Z" style="fill:#03a7d3"/><path d="M127.34,248.15a12.93,12.93,0,0,1-6.3-1.51l-42.4-24.48c-1.76-1-2.73-2.39-2.73-3.87s1-2.85,2.73-3.87l42.17-24.52a14,14,0,0,1,12.62,0l42.39,24.48c1.76,1,2.73,2.39,2.73,3.87s-1,2.85-2.73,3.87l-42.17,24.52A12.94,12.94,0,0,1,127.34,248.15Zm-.22-59a12.1,12.1,0,0,0-5.91,1.41L79,215.11c-1.51.87-2.34,2-2.34,3.18s.83,2.32,2.33,3.19L121.43,246a13.09,13.09,0,0,0,11.82,0l42.18-24.53c1.5-.87,2.33-2,2.33-3.18s-.83-2.32-2.33-3.19L133,190.58A12.1,12.1,0,0,0,127.12,189.17Z" style="fill:#03a7d3;opacity:0.7000000000000001"/><path d="M127.34,262.29a12.93,12.93,0,0,1-6.3-1.51L78.64,236.3c-1.76-1-2.73-2.39-2.73-3.87s1-2.85,2.73-3.87L120.81,204a14,14,0,0,1,12.62,0l42.39,24.48c1.76,1,2.73,2.39,2.73,3.87s-1,2.85-2.73,3.87l-42.17,24.52A12.94,12.94,0,0,1,127.34,262.29Zm-.22-59a12,12,0,0,0-5.91,1.42L79,229.25c-1.51.87-2.34,2-2.34,3.18s.83,2.32,2.33,3.19l42.4,24.48a13.09,13.09,0,0,0,11.82,0l42.18-24.53c1.5-.86,2.33-2,2.33-3.18s-.83-2.32-2.33-3.19L133,204.73A12,12,0,0,0,127.12,203.31Z" style="fill:#03a7d3;opacity:0.4"/><path d="M178.36,190.73h0V170.4l-25.69,3.43-19.23-11.11a13.49,13.49,0,0,0-12.22,0l-3,1.91-41.7,5.56v20.7h0A4.37,4.37,0,0,0,79,194.3l42.4,24.48a13.49,13.49,0,0,0,12.22,0l42.17-24.53a4.3,4.3,0,0,0,2.51-3.4h0Z" style="fill:url(#f)"/><path d="M175.83,166.72l-42.39-24.48a13.49,13.49,0,0,0-12.22,0L79,166.77c-3.37,1.94-3.37,5.1,0,7l42.4,24.48a13.49,13.49,0,0,0,12.22,0l42.17-24.53C179.21,171.83,179.21,168.67,175.83,166.72Z" style="fill:url(#g)"/><path d="M175.83,172.54l-42.17,24.53a13.56,13.56,0,0,1-12.22,0L79,172.59a4.71,4.71,0,0,1-2.45-2.91c-.32,1.47.5,3,2.45,4.14l42.4,24.48a13.49,13.49,0,0,0,12.22,0l42.17-24.53c2-1.13,2.78-2.66,2.46-4.14A4.65,4.65,0,0,1,175.83,172.54Z" style="fill:#fff"/><polygon points="139.36 203.72 137.35 204.88 137.35 202.57 139.36 201.41 139.36 203.72" style="fill:#fff"/><polygon points="143.56 201.3 141.55 202.46 141.55 200.14 143.56 198.98 143.56 201.3" style="fill:#fff"/><polygon points="147.76 198.88 145.75 200.03 145.75 197.72 147.76 196.56 147.76 198.88" style="fill:#fff"/><polygon points="144.32 205.55 142.32 206.71 142.32 204.4 144.32 203.24 144.32 205.55" style="fill:#fff"/><polygon points="148.02 203.42 146.01 204.58 146.01 202.26 148.02 201.1 148.02 203.42" style="fill:#fff"/><polygon points="161.23 191.1 159.22 192.26 159.22 189.94 161.23 188.78 161.23 191.1" style="fill:#fff"/><polygon points="172.79 184.42 170.79 185.58 170.79 183.26 172.79 182.1 172.79 184.42" style="fill:#fff"/><polygon points="151.96 196.45 149.95 197.61 149.95 195.29 151.96 194.13 151.96 196.45" style="fill:#fff"/><path d="M125,188,96.52,171.49c-1.16-.67-1-1.84.32-2.61l27.87-16.1a5,5,0,0,1,4.53-.18l28.52,16.46c1.16.67,1,1.84-.32,2.62l-27.88,16.09A5,5,0,0,1,125,188Z" style="fill:#06033e;opacity:0.4"/><path d="M113.82,205.78,90.28,192.19a2.43,2.43,0,0,1-1-1.94V188.5c0-.75.46-1.09,1-.77l23.54,13.59a2.46,2.46,0,0,1,1,2V205C114.84,205.76,114.38,206.11,113.82,205.78Z" style="fill:#fff"/><path d="M178.36,152.59h0V132.26l-25.69,3.43-19.23-11.1a13.49,13.49,0,0,0-12.22,0l-3,1.9-41.7,5.56v20.7h0A4.34,4.34,0,0,0,79,156.16l42.4,24.48a13.49,13.49,0,0,0,12.22,0l42.17-24.52a4.32,4.32,0,0,0,2.51-3.41h0Z" style="fill:url(#h)"/><path d="M175.83,128.59l-42.39-24.48a13.49,13.49,0,0,0-12.22,0L79,128.63c-3.37,2-3.37,5.11,0,7.05l42.4,24.48a13.49,13.49,0,0,0,12.22,0l42.17-24.52C179.21,133.69,179.21,130.53,175.83,128.59Z" style="fill:url(#i)"/><path d="M155.64,130.07,130.93,115.8a7.9,7.9,0,0,0-7.12,0L99.24,130.09c-2,1.14-2,3,0,4.11L124,148.47a7.88,7.88,0,0,0,7.11,0l24.58-14.29C157.6,133,157.6,131.2,155.64,130.07Z" style="fill:#06033e;opacity:0.4"/><path d="M175.83,134.41l-42.17,24.52a13.49,13.49,0,0,1-12.22,0L79,134.45a4.71,4.71,0,0,1-2.45-2.91c-.32,1.47.5,3,2.45,4.14l42.4,24.48a13.49,13.49,0,0,0,12.22,0l42.17-24.52c2-1.13,2.78-2.67,2.46-4.14A4.69,4.69,0,0,1,175.83,134.41Z" style="fill:#fff"/><polygon points="139.36 165.59 137.35 166.75 137.35 164.43 139.36 163.27 139.36 165.59" style="fill:#fff"/><polygon points="143.56 163.16 141.55 164.32 141.55 162 143.56 160.85 143.56 163.16" style="fill:#fff"/><polygon points="147.76 160.74 145.75 161.9 145.75 159.58 147.76 158.42 147.76 160.74" style="fill:#fff"/><polygon points="144.32 167.42 142.32 168.58 142.32 166.26 144.32 165.1 144.32 167.42" style="fill:#fff"/><polygon points="148.02 165.28 146.01 166.44 146.01 164.12 148.02 162.97 148.02 165.28" style="fill:#fff"/><polygon points="161.23 152.96 159.22 154.12 159.22 151.8 161.23 150.65 161.23 152.96" style="fill:#fff"/><polygon points="172.79 146.28 170.79 147.44 170.79 145.13 172.79 143.97 172.79 146.28" style="fill:#fff"/><polygon points="151.96 158.31 149.95 159.47 149.95 157.16 151.96 156 151.96 158.31" style="fill:#fff"/><path d="M178.36,114.46h0V94.13l-25.69,3.43L133.44,86.45a13.49,13.49,0,0,0-12.22,0l-3,1.9-41.7,5.57v20.69h0A4.37,4.37,0,0,0,79,118l42.4,24.48a13.56,13.56,0,0,0,12.22,0L175.83,118a4.32,4.32,0,0,0,2.51-3.4h0Z" style="fill:url(#j)"/><path d="M175.83,90.45,133.44,66a13.49,13.49,0,0,0-12.22,0L79,90.49c-3.37,2-3.37,5.11,0,7.06L121.44,122a13.56,13.56,0,0,0,12.22,0L175.83,97.5C179.21,95.55,179.21,92.4,175.83,90.45Z" style="fill:url(#k)"/><path d="M175.83,90.45,133.44,66a13.49,13.49,0,0,0-12.22,0L79,90.49c-3.37,2-3.37,5.11,0,7.06L121.44,122a13.56,13.56,0,0,0,12.22,0L175.83,97.5C179.21,95.55,179.21,92.4,175.83,90.45Z" style="fill:url(#l)"/><path d="M127.51,114.1a8.8,8.8,0,0,1-4.32-1L95.1,96.83a3,3,0,0,1,0-5.63L123,75a9.43,9.43,0,0,1,8.65,0l28.09,16.22a3,3,0,0,1,0,5.63L131.84,113A8.71,8.71,0,0,1,127.51,114.1ZM127.37,75a7.74,7.74,0,0,0-3.78.9L95.65,92.15A2.36,2.36,0,0,0,94.25,94a2.33,2.33,0,0,0,1.4,1.86l28.09,16.22a8.37,8.37,0,0,0,7.55,0l27.94-16.25a2.33,2.33,0,0,0,1.4-1.86,2.36,2.36,0,0,0-1.4-1.86L131.14,75.9A7.73,7.73,0,0,0,127.37,75Z" style="fill:#8b1e64"/><path d="M175.83,96.27l-42.17,24.52a13.49,13.49,0,0,1-12.22,0L79,96.32a4.7,4.7,0,0,1-2.45-2.92c-.32,1.48.5,3,2.45,4.15L121.44,122a13.56,13.56,0,0,0,12.22,0L175.83,97.5c2-1.13,2.78-2.67,2.46-4.14A4.69,4.69,0,0,1,175.83,96.27Z" style="fill:#fff"/><polygon points="139.36 127.45 137.35 128.61 137.35 126.29 139.36 125.14 139.36 127.45" style="fill:#fff"/><polygon points="143.56 125.03 141.55 126.19 141.55 123.87 143.56 122.71 143.56 125.03" style="fill:#fff"/><polygon points="147.76 122.6 145.75 123.76 145.75 121.44 147.76 120.29 147.76 122.6" style="fill:#fff"/><polygon points="144.32 129.28 142.32 130.44 142.32 128.12 144.32 126.96 144.32 129.28" style="fill:#fff"/><polygon points="148.02 127.15 146.01 128.31 146.01 125.99 148.02 124.83 148.02 127.15" style="fill:#fff"/><polygon points="161.23 114.83 159.22 115.99 159.22 113.67 161.23 112.51 161.23 114.83" style="fill:#fff"/><polygon points="172.79 108.15 170.79 109.31 170.79 106.99 172.79 105.83 172.79 108.15" style="fill:#fff"/><polygon points="151.96 120.18 149.95 121.34 149.95 119.02 151.96 117.86 151.96 120.18" style="fill:#fff"/><path d="M134.8,171c-2.77.07-5.58.1-8.4.08-22.11-.18-42.59-3.39-59.68-8.77-17.07-4.56-18.11,13.3-12.15,24.34,4.25,7.85,10,10,12.15,10.82,17.09,5.38,37.57,8.58,59.68,8.77,2.82,0,5.63,0,8.4-.08,20.06-1.48,25.32-20.75,15.94-29.74-2.61-2.51-7.5-5.49-15.94-5.42Z" style="fill:#172f78;opacity:0.6000000000000001"/><g style="opacity:0.30000000000000004"><path d="M238.69,149.12l-.31-.6a25.13,25.13,0,0,1-1-2.45c-3.73-10.89-14.62-20.76-31.51-28.56-11.74-6.67-14.58-16.3-15.26-20.13h0c-.8-4.53.11-10.94,4-14.33,2.85-2.48,6.73-3,11.54-1.4,17.12,7.91,28.15,17.93,32,29,.8,3.13,1.42,5.57,1.43,16.63V146c0,1.65,0,1.75-.47,2.51ZM191.34,97.25c.66,3.72,3.43,13.1,14.86,19.59,17.05,7.88,28.08,17.9,31.88,29,.23.64.44,1.17.63,1.61a11.39,11.39,0,0,0,0-1.4V127.29c0-11-.62-13.37-1.39-16.41-3.72-10.86-14.61-20.73-31.5-28.53-4.5-1.45-8.14-1-10.77,1.27-3.67,3.19-4.51,9.3-3.75,13.63Z" style="fill:#03a7d3"/><path d="M17.91,154.31l-.75,0V119.12c0-.32,0-.63,0-.94.22-5.83,2.44-11.53,6.59-17l.16-.16c.8-.79,1.9-1.88,3-2,1.51-.22,2.85.55,3.89,2.21,3.47,5.53,3.15,21.4-6.47,35.59C18.76,144.44,18.39,148.8,17.91,154.31Zm9.53-54.56-.38,0a6,6,0,0,0-2.6,1.82l-.12.13c-4,5.25-6.2,10.81-6.41,16.47,0,.31,0,.61,0,.92v29.24c.72-3.42,2.2-7,5.85-12,9.43-13.93,9.8-29.4,6.45-34.76A3.47,3.47,0,0,0,27.44,99.75Z" style="fill:#03a7d3"/></g><path d="M25.92,172.6c-.92,0-2.14-.49-3.47-2.31-4.58-6.25-5-12.34-5.29-16V119.12h.76a27.56,27.56,0,0,0,5.14,15.58c7.5,12.41,8.39,24.65,7.73,29.93h0c-.54,4.33-2.15,7.36-4.21,7.89A2.71,2.71,0,0,1,25.92,172.6Zm-8-47.35v29c.25,3.53.69,9.49,5.13,15.57.79,1.08,2,2.29,3.34,1.94,1.73-.45,3.16-3.29,3.65-7.25h0c.65-5.19-.23-17.22-7.61-29.43A30.48,30.48,0,0,1,17.92,125.25Z" style="fill:#03a7d3"/><path d="M128.33,206.65H126.4c-21.41-.17-42.08-3.21-59.79-8.78-2.22-.84-8.06-3-12.37-11-3.56-6.6-5-16.56-.68-22,1.9-2.41,5.74-4.87,13.26-2.86,17.65,5.56,38.25,8.59,59.58,8.76,2.8,0,5.62,0,8.39-.08h0c8.56,0,13.54,3,16.2,5.53a16,16,0,0,1,3.57,17c-2.75,7.64-10.13,12.62-19.74,13.33C132.68,206.62,130.5,206.65,128.33,206.65ZM61.7,162a9.13,9.13,0,0,0-7.55,3.3c-4.13,5.23-2.69,14.83.75,21.21,4.18,7.73,9.83,9.85,11.95,10.64,17.62,5.55,38.22,8.57,59.55,8.75,2.81,0,5.63,0,8.39-.08,9.29-.68,16.43-5.48,19.08-12.84a15.28,15.28,0,0,0-3.39-16.25c-2.54-2.44-7.26-5.32-15.39-5.32h-.28c-2.78.08-5.61.11-8.41.08-21.41-.17-42.09-3.21-59.79-8.79A19.23,19.23,0,0,0,61.7,162Z" style="fill:#03a7d3"/><path d="M198.19,193.8a10.21,10.21,0,0,1-8.25-3.69c-3.84-4.69-3.93-13.2-.21-20.24a30.13,30.13,0,0,1,13.14-12.69c17.52-7.52,29.19-17.2,33.78-28a18.26,18.26,0,0,1,1.32-2.44l.1-.14.85-.11.1.29c.3.85.43,1.21.47,5.42V143c-.1,15.26-1,18.05-2.14,21.59-4.67,11-16.48,20.84-34.16,28.42A17.47,17.47,0,0,1,198.19,193.8Zm40.25-66.42a21.61,21.61,0,0,0-1.11,2.09c-4.65,11-16.46,20.8-34.14,28.39a29.43,29.43,0,0,0-12.8,12.37c-3.58,6.78-3.52,14.94.13,19.41,1.91,2.33,5.61,4.68,12.42,2.67,17.45-7.49,29.12-17.17,33.71-28,1.1-3.44,2-6.18,2.08-21.33V132.18C238.7,128.79,238.62,128,238.44,127.38Z" style="fill:#03a7d3"/><path d="M204.83,247.56a5.75,5.75,0,0,1-2.83-.68l-18.26-10.55a2,2,0,0,1,0-3.72l18.17-10.56a6.13,6.13,0,0,1,5.65,0l18.27,10.54a2,2,0,0,1,0,3.72l-18.17,10.57A5.73,5.73,0,0,1,204.83,247.56Zm-.1-25.41a4.93,4.93,0,0,0-2.43.58l-18.17,10.56a1.52,1.52,0,0,0-.89,1.18,1.49,1.49,0,0,0,.89,1.18l18.27,10.54a5.36,5.36,0,0,0,4.87,0l18.16-10.56a1.22,1.22,0,0,0,0-2.35l-18.26-10.55A5,5,0,0,0,204.73,222.15Z" style="fill:#03a7d3"/><path d="M49.94,247.56a5.73,5.73,0,0,1-2.83-.68L28.84,236.33a2,2,0,0,1,0-3.72L47,222.05a6.15,6.15,0,0,1,5.66,0l18.26,10.54a2,2,0,0,1,0,3.72L52.77,246.88A5.78,5.78,0,0,1,49.94,247.56Zm-.1-25.41a4.93,4.93,0,0,0-2.43.58L29.24,233.29a1.49,1.49,0,0,0-.89,1.18,1.47,1.47,0,0,0,.89,1.18L47.5,246.19a5.36,5.36,0,0,0,4.87,0l18.17-10.56a1.22,1.22,0,0,0,0-2.35L52.27,222.73A4.93,4.93,0,0,0,49.84,222.15Z" style="fill:#03a7d3"/><g style="opacity:0.5"><path d="M204.83,239.33a5.86,5.86,0,0,1-2.83-.68L183.74,228.1a2,2,0,0,1,0-3.72l18.17-10.56a6.13,6.13,0,0,1,5.65,0l18.27,10.54a2,2,0,0,1,0,3.72l-18.17,10.57A5.83,5.83,0,0,1,204.83,239.33Zm-.1-25.41a4.93,4.93,0,0,0-2.43.58l-18.17,10.56a1.23,1.23,0,0,0,0,2.36L202.4,238a5.36,5.36,0,0,0,4.87,0l18.16-10.56a1.48,1.48,0,0,0,.9-1.18c0-.43-.32-.84-.9-1.18L207.17,214.5A5,5,0,0,0,204.73,213.92Z" style="fill:#03a7d3"/><path d="M49.94,239.33a5.83,5.83,0,0,1-2.83-.68L28.84,228.1a2,2,0,0,1,0-3.72L47,213.82a6.15,6.15,0,0,1,5.66,0l18.26,10.54a2,2,0,0,1,0,3.72L52.77,238.65A5.89,5.89,0,0,1,49.94,239.33Zm-.1-25.41a4.93,4.93,0,0,0-2.43.58L29.24,225.06a1.23,1.23,0,0,0,0,2.36L47.5,238a5.36,5.36,0,0,0,4.87,0L70.54,227.4a1.23,1.23,0,0,0,0-2.36L52.27,214.5A4.93,4.93,0,0,0,49.84,213.92Z" style="fill:#03a7d3"/></g><path d="M52.34,126.19a4,4,0,1,1-4-4A4,4,0,0,1,52.34,126.19Z" style="fill:#03a7d3;opacity:0.4"/><path d="M50.32,126.19a1.94,1.94,0,1,1-1.94-2A1.94,1.94,0,0,1,50.32,126.19Z" style="fill:#01c8ef;opacity:0.8"/><path d="M231.52,215.1a1.94,1.94,0,1,1-1.94-1.94A1.94,1.94,0,0,1,231.52,215.1Z" style="fill:#03a7d3;opacity:0.4"/><circle cx="229.58" cy="215.1" r="0.95" style="fill:#01c8ef;opacity:0.8"/><path d="M213.92,34.72a3.29,3.29,0,1,1-3.28-3.28A3.28,3.28,0,0,1,213.92,34.72Z" style="fill:#03a7d3;opacity:0.4"/><path d="M212.25,34.72a1.62,1.62,0,0,1-3.23,0,1.62,1.62,0,1,1,3.23,0Z" style="fill:#01c8ef;opacity:0.8"/></g></svg>