<svg width="1920" height="1080" fill="none" xmlns="http://www.w3.org/2000/svg"><path d="M1396.47 729.007Z" fill="#1D4AC4"/><path d="M1197.79 174.325c.88 0 1.6-.716 1.6-1.598a1.601 1.601 0 0 0-3.2 0c0 .882.72 1.598 1.6 1.598ZM777.598 499.383a1.597 1.597 0 1 0 .001-3.195 1.597 1.597 0 0 0-.001 3.195ZM1600.6 749.383c.88 0 1.6-.715 1.6-1.598a1.601 1.601 0 0 0-3.2 0c0 .883.72 1.598 1.6 1.598Z" fill="#7754BE"/><path d="M1640.6 561.383c.88 0 1.6-.715 1.6-1.598a1.601 1.601 0 0 0-3.2 0c0 .883.72 1.598 1.6 1.598ZM1199.39 203.4c1.27 0 2.31-1.023 2.31-2.286 0-1.262-1.04-2.286-2.31-2.286a2.296 2.296 0 0 0-2.31 2.286 2.295 2.295 0 0 0 2.31 2.286ZM926.369 106.716a2.429 2.429 0 1 0 0-4.858 2.429 2.429 0 0 0 0 4.858ZM1351.57 152.772a2.43 2.43 0 0 0 2.43-2.429 2.431 2.431 0 0 0-4.86 0 2.43 2.43 0 0 0 2.43 2.429ZM1226.92 101.858c1.34 0 2.43-1.088 2.43-2.429a2.43 2.43 0 0 0-4.86 0 2.431 2.431 0 0 0 2.43 2.429ZM1582.43 250.408a.341.341 0 0 0 .17-.124.355.355 0 0 0 .08-.196c.05-.317-.03-.64-.22-.9a6.905 6.905 0 0 0-.35-.466c-.33-.38-.68-.736-1.06-1.067a30.285 30.285 0 0 0-3.95-2.875c-1.74-1.101-3.77-2.217-5.81-3.235a8.14 8.14 0 0 0-1.72-3.769 8.147 8.147 0 0 0-7.47-2.891 8.095 8.095 0 0 0-3.81 1.629 60.6 60.6 0 0 0-4.02-1.009c-1.59-.359-3.2-.598-4.83-.716a9.09 9.09 0 0 0-2.04.067c-.24.02-.46.089-.67.2a1.7 1.7 0 0 0-.52.45.408.408 0 0 0-.1.232c0 .085.02.171.06.245a.345.345 0 0 0-.17.123.297.297 0 0 0-.08.196c-.05.317.03.64.22.9.1.162.22.317.35.464.32.38.67.736 1.05 1.067a30.879 30.879 0 0 0 3.95 2.875 61.71 61.71 0 0 0 3.69 2.139c.14 1.46.67 2.854 1.54 4.034a8.164 8.164 0 0 0 7.68 3.235 8.19 8.19 0 0 0 3.97-1.711c2.02.633 4.08 1.19 5.95 1.586 1.59.359 3.21.598 4.83.715.68.055 1.37.033 2.05-.067a1.72 1.72 0 0 0 1.19-.649c.13-.227.11-.393.04-.482Zm-30.06-10.311a31.76 31.76 0 0 1-3.96-2.421c-.35-.259-.69-.54-1-.844a2.877 2.877 0 0 1-.3-.327 1.803 1.803 0 0 0-.57-.435c.34.007.67-.002 1-.029.59-.031 1.19.005 1.77.108 1.53.246 3.05.597 4.53 1.049.92.266 1.9.576 2.89.912a8.035 8.035 0 0 0-1.48 3.434c-1-.479-1.98-.966-2.88-1.447Zm28.69 10.252a7.827 7.827 0 0 1-1.77-.109 33.885 33.885 0 0 1-4.53-1.049c-1.51-.435-3.15-.988-4.8-1.582a7.92 7.92 0 0 0 1.4-3.683c1.71.771 3.39 1.574 4.87 2.364 1.38.71 2.7 1.519 3.96 2.421.35.259.69.541 1 .844.11.103.21.213.3.327.16.181.35.329.56.436-.33-.007-.66.003-.99.031ZM1131.02 196.105l5.58-1.576-5.58-1.576-1.58-5.578-1.57 5.578-5.58 1.576 5.58 1.576 1.57 5.578 1.58-5.578ZM1836.89 599.779s-2.97-.3-6.91-.38c-8.46-.143-16.91.619-25.2 2.274-3.87.783-6.74 1.616-6.74 1.616-1.3.341-1.44-.13-.17-.573 0 0 2.85-.97 6.72-1.9a84.545 84.545 0 0 1 25.41-2.294c3.98.222 6.95.659 6.95.659 1.84.253 1.98.787-.06.598ZM1811.67 605.646s-1.05.055-2.43.2c-1.38.145-3.08.376-4.41.58-1.33.204-3.03.457-4.39.728-1.36.271-2.38.52-2.38.52-.46.1-.61-.371-.17-.571 0 0 .99-.39 2.34-.8 2.9-.921 5.92-1.371 8.96-1.333 1.42 0 2.48.079 2.48.079.65.044.71.561 0 .597ZM1781.31 690.727a4.32 4.32 0 0 1 0-3.047c.04-.105.53-.1.6 0a4.32 4.32 0 0 1 0 3.047c-.04.143-.56.16-.6 0ZM932.606 232.936a4.288 4.288 0 0 1 0-3.047c.045-.105.535-.1.6 0a4.288 4.288 0 0 1 0 3.047c-.041.143-.561.16-.6 0ZM1779.17 693.02a1.34 1.34 0 0 1-.85.193 1.376 1.376 0 0 1-.79-.365c-.03-.2-.01-.406.06-.595.26-.156.56-.223.85-.192.3.031.58.16.79.365.07.05.03.561-.06.594ZM930.465 235.229a1.34 1.34 0 0 1-1.636-.172 1.09 1.09 0 0 1 .062-.595 1.35 1.35 0 0 1 1.637.173c.071.05.025.561-.063.594ZM1791.85 694.349a9.107 9.107 0 0 1-4.48.231c-.16-.037-.18-.526-.03-.6a9.119 9.119 0 0 1 4.48-.231c.21.038.26.549.03.6ZM943.146 236.558a9.107 9.107 0 0 1-4.48.231c-.157-.037-.18-.526-.031-.6a9.12 9.12 0 0 1 4.48-.231c.212.038.262.549.031.6ZM1491.07 945.206s-6.13-5.877-9.96-9.781c-3.82-3.904-9.55-10.172-9.55-10.172-.64-.717-.28-1.051.43-.418 0 0 6.13 5.877 9.95 9.781 3.82 3.904 9.55 10.172 9.55 10.172.89.962.62 1.43-.42.418ZM1570.43 848.867s-3.5 1.615-5.81 2.494c-2.31.879-6.01 1.97-6.01 1.97-.42.111-.59-.349-.21-.559 0 0 3.5-1.615 5.81-2.494 2.31-.879 6.01-1.97 6.01-1.97.57-.168.81.29.21.559ZM1155.75 805.187ZM1109.47 825.044a2.66 2.66 0 1 0 .001-5.319 2.66 2.66 0 0 0-.001 5.319Z" fill="#1D4AC4"/><path d="m1136.97 940.974 5.57-1.576-5.57-1.577-1.58-5.577-1.58 5.577-5.57 1.577 5.57 1.576 1.58 5.577 1.58-5.577ZM910.073 359.921l5.577-1.576-5.577-1.576-1.577-5.578-1.576 5.578-5.577 1.576 5.577 1.576 1.576 5.578 1.577-5.578ZM1395.27 839.736l5.58-1.577-5.58-1.576-1.57-5.577-1.58 5.577-5.58 1.576 5.58 1.577 1.58 5.577 1.57-5.577Z" fill="#7754BE"/><path d="m1399.96 581.496 5.58-1.576-5.58-1.577-1.57-5.577-1.58 5.577-5.58 1.577 5.58 1.576 1.58 5.577 1.57-5.577ZM1397 569.474c-.37-1.878-.37-3.81 0-5.687.05-.195.54-.193.6 0 .38 1.877.38 3.809 0 5.687-.04.266-.56.296-.6 0ZM1105.01 827.422s-1.24.909-2.83 2.178a135.34 135.34 0 0 0-4.97 4.222c-1.47 1.313-3.35 3-4.8 4.418-1.45 1.418-2.51 2.541-2.51 2.541-.49.493-.86.169-.45-.394 0 0 .96-1.222 2.33-2.752a60.534 60.534 0 0 1 4.66-4.681c1.67-1.447 3.41-2.8 5.22-4.054a62.38 62.38 0 0 1 3.02-1.973c.81-.498 1.19-.126.33.495ZM901.66 540.507a2.66 2.66 0 1 0 0-5.32 2.66 2.66 0 0 0 0 5.32ZM908.375 538.296s1.48.428 3.453.906c1.973.478 4.442.991 6.382 1.353 1.94.362 4.418.817 6.43 1.1a90.03 90.03 0 0 0 3.544.43c.69.087.659.575-.036.6 0 0-1.552-.009-3.6-.158a52.172 52.172 0 0 1-12.955-2.476c-1.958-.618-3.4-1.18-3.4-1.18-.897-.347-.829-.868.182-.575ZM1172.32 777.002s-3.5 1.615-5.82 2.494c-2.31.879-6 1.97-6 1.97-.43.111-.59-.349-.22-.559 0 0 3.5-1.615 5.82-2.494 2.31-.879 6.01-1.97 6.01-1.97.56-.169.81.29.21.559ZM1414.87 316.142s-1.05.544-2.36 1.367c-1.4.887-2.76 1.844-4.06 2.866-1.19.913-2.67 2.139-3.8 3.208-1.13 1.069-1.92 1.94-1.92 1.94-.37.38-.75.073-.46-.38.55-.752 1.13-1.475 1.75-2.168a25.706 25.706 0 0 1 8.05-6.227c1.42-.722 2.54-1.148 2.54-1.148.69-.27.97.17.26.542ZM1411.28 323.538s-1.72 1.477-2.92 2.286c-1.21.809-3.24 1.82-3.24 1.82-.23.1-.5-.306-.33-.5 0 0 1.72-1.478 2.92-2.286 1.21-.808 3.24-1.82 3.24-1.82a.3.3 0 0 1 .22-.037c.08.017.14.062.19.127.04.065.06.144.04.22a.295.295 0 0 1-.12.19Z" fill="#1D4AC4"/><path d="M1285.68 835.872c.88 0 1.6-.716 1.6-1.598a1.601 1.601 0 0 0-3.2 0c0 .882.72 1.598 1.6 1.598ZM1284.95 587.58c.88 0 1.59-.716 1.59-1.598a1.595 1.595 0 1 0-3.19 0c0 .882.71 1.598 1.6 1.598Z" fill="#7754BE"/><path d="M1287.28 864.947c1.27 0 2.31-1.023 2.31-2.286 0-1.263-1.04-2.286-2.31-2.286a2.295 2.295 0 0 0-2.31 2.286 2.295 2.295 0 0 0 2.31 2.286ZM1034.77 362.54c1.28 0 2.31-1.024 2.31-2.286a2.295 2.295 0 0 0-2.31-2.286c-1.27 0-2.31 1.023-2.31 2.286 0 1.262 1.04 2.286 2.31 2.286ZM1329.36 847.636c1.34 0 2.43-1.088 2.43-2.429a2.43 2.43 0 0 0-4.86 0 2.431 2.431 0 0 0 2.43 2.429ZM1221.04 921.16l5.58-1.576-5.58-1.577-1.57-5.577-1.58 5.577-5.58 1.577 5.58 1.576 1.58 5.577 1.57-5.577ZM1345.35 829.646s-1.04.543-2.36 1.367c-1.4.887-2.75 1.843-4.06 2.866-1.19.912-2.67 2.138-3.8 3.207-1.12 1.069-1.91 1.941-1.91 1.941-.37.38-.75.072-.46-.38 0 0 .69-.98 1.75-2.169a25.703 25.703 0 0 1 8.05-6.226c1.41-.722 2.54-1.148 2.54-1.148.69-.271.97.169.25.542ZM1341.77 837.041s-1.72 1.478-2.93 2.286c-1.2.808-3.23 1.82-3.23 1.82-.24.1-.51-.305-.33-.5 0 0 1.72-1.478 2.92-2.286s3.24-1.82 3.24-1.82c.06-.044.14-.06.22-.044.08.015.15.062.19.128.05.066.06.147.05.225a.35.35 0 0 1-.13.191Z" fill="#1D4AC4"/><path d="M1459.75 651.767c.88 0 1.59-.716 1.59-1.598a1.595 1.595 0 1 0-3.19 0c0 .882.71 1.598 1.6 1.598ZM1128.4 408.928c.88 0 1.6-.716 1.6-1.598a1.601 1.601 0 0 0-3.2 0c0 .882.72 1.598 1.6 1.598Z" fill="#7754BE"/><path d="M333.98 272.719c1.276 0 2.31-1.023 2.31-2.286 0-1.263-1.034-2.286-2.31-2.286s-2.31 1.023-2.31 2.286c0 1.263 1.034 2.286 2.31 2.286ZM723.853 701.778c1.276 0 2.31-1.023 2.31-2.286 0-1.262-1.034-2.286-2.31-2.286s-2.31 1.024-2.31 2.286c0 1.263 1.034 2.286 2.31 2.286ZM1003.94 653.563a2.43 2.43 0 0 0 2.43-2.429 2.431 2.431 0 0 0-4.86 0 2.43 2.43 0 0 0 2.43 2.429ZM1163.31 321.602c1.34 0 2.42-1.087 2.42-2.429a2.425 2.425 0 1 0-4.85 0 2.424 2.424 0 0 0 2.43 2.429ZM669.99 575.044a2.43 2.43 0 1 0-.001-4.86 2.43 2.43 0 0 0 .001 4.86ZM513.148 948.128l5.578-1.577-5.578-1.576-1.576-5.577-1.577 5.577-5.577 1.576 5.577 1.577 1.577 5.577 1.576-5.577ZM1519.42 645.541s-1.05.543-2.36 1.367c-1.4.887-2.76 1.843-4.06 2.865-1.19.913-2.67 2.139-3.79 3.208-1.13 1.069-1.92 1.941-1.92 1.941-.37.38-.75.072-.46-.38.54-.752 1.13-1.476 1.75-2.169a25.688 25.688 0 0 1 8.05-6.226c1.42-.722 2.54-1.148 2.54-1.148.69-.271.96.169.25.542ZM1515.83 652.936s-1.72 1.478-2.92 2.286c-1.21.808-3.24 1.82-3.24 1.82-.23.1-.5-.306-.33-.5 0 0 1.72-1.478 2.93-2.286 1.2-.808 3.23-1.82 3.23-1.82a.3.3 0 0 1 .22-.037.292.292 0 0 1 .23.347.26.26 0 0 1-.12.19ZM1760.22 679.757s-1.65-1.263-3.74-3.031c-2.09-1.768-4.63-4.052-6.52-5.942-1.89-1.89-4.18-4.414-5.95-6.508-1.76-2.094-3.03-3.733-3.03-3.733-.57-.748-.18-1.049.46-.383 0 0 1.36 1.548 3.23 3.535 1.86 1.987 4.23 4.4 6.11 6.27 1.88 1.87 4.29 4.249 6.28 6.107 1.99 1.858 3.54 3.226 3.54 3.226.94.842.73 1.337-.38.459ZM911.513 221.966s-1.643-1.263-3.737-3.031c-2.094-1.768-4.627-4.052-6.516-5.942-1.889-1.89-4.183-4.414-5.95-6.508-1.767-2.094-3.036-3.733-3.036-3.733-.565-.748-.179-1.049.459-.383 0 0 1.364 1.548 3.229 3.535s4.237 4.4 6.116 6.27c1.879 1.87 4.286 4.249 6.279 6.107 1.993 1.858 3.538 3.226 3.538 3.226.946.842.734 1.337-.382.459ZM1762.62 694.56s-3.96-.108-6.5-.349-6.44-.907-6.44-.907c-.44-.088-.38-.575.06-.595 0 0 3.96.108 6.49.349 2.54.241 6.45.907 6.45.907.6.102.62.622-.06.595ZM913.919 236.769s-3.961-.108-6.5-.349-6.44-.907-6.44-.907c-.44-.088-.387-.575.058-.595 0 0 3.961.108 6.494.349s6.441.907 6.441.907c.605.102.624.622-.053.595ZM642.981 372.49c1.397 0 2.529-1.121 2.529-2.503 0-1.382-1.132-2.503-2.529-2.503s-2.529 1.121-2.529 2.503c0 1.382 1.132 2.503 2.529 2.503ZM459.492 408.984a3.491 3.491 0 1 0 .001-6.983 3.491 3.491 0 0 0-.001 6.983ZM624.374 793.787a3.492 3.492 0 1 0 0-6.984 3.492 3.492 0 0 0 0 6.984Z" fill="#1D4AC4"/><path d="m848.143 742.313 5.577-1.577-5.577-1.576-1.577-5.578-1.576 5.578-5.577 1.576 5.577 1.577 1.576 5.577 1.577-5.577Z" fill="#7754BE"/><path d="M686.776 362.521s-2.975-.3-6.918-.38c-4.225-.077-8.45.077-12.658.463-4.209.377-8.394.981-12.537 1.81-3.866.784-6.738 1.616-6.738 1.616-1.3.342-1.439-.129-.171-.573 0 0 2.848-.969 6.719-1.9a84.596 84.596 0 0 1 25.419-2.294c3.973.222 6.949.66 6.949.66 1.832.252 1.97.787-.065.598ZM661.546 368.387s-1.051.056-2.43.2a99.582 99.582 0 0 0-4.407.58c-1.328.204-3.026.457-4.385.728a62.903 62.903 0 0 0-2.381.521c-.466.095-.612-.372-.176-.572 0 0 .993-.389 2.345-.8a28.45 28.45 0 0 1 8.96-1.333c1.412 0 2.475.079 2.475.079.655.045.721.561-.001.597ZM775.385 760.369a4.27 4.27 0 0 1 0-3.048c.045-.105.534-.1.6 0a4.28 4.28 0 0 1 0 3.048c-.046.142-.562.158-.6 0ZM773.243 762.661a1.345 1.345 0 0 1-1.637-.172c-.035-.2-.013-.406.063-.594a1.351 1.351 0 0 1 1.636.172c.072.051.027.565-.062.594ZM785.925 763.987a9.097 9.097 0 0 1-4.48.231c-.157-.037-.18-.526-.031-.6a9.13 9.13 0 0 1 4.48-.231c.212.039.262.553.031.6ZM754.291 749.398s-1.643-1.263-3.736-3.031c-2.093-1.768-4.628-4.052-6.516-5.942-1.888-1.89-4.184-4.414-5.951-6.508a128.608 128.608 0 0 1-3.035-3.73c-.566-.747-.179-1.049.459-.383 0 0 1.364 1.548 3.229 3.535s4.237 4.4 6.116 6.27c1.879 1.87 4.286 4.249 6.278 6.107a200.602 200.602 0 0 0 3.539 3.226c.946.839.733 1.334-.383.456ZM756.697 764.202s-3.961-.109-6.494-.35-6.44-.907-6.44-.907c-.44-.088-.387-.575.058-.6 0 0 3.961.108 6.494.349s6.44.908 6.44.908c.6.106.62.627-.058.6Z" fill="#1D4AC4"/><path d="M1440.29 902.244a4.324 4.324 0 0 1 0-3.048c.05-.105.54-.1.6 0 .38.981.38 2.067 0 3.048-.04.143-.56.158-.6 0ZM1438.15 904.536a1.34 1.34 0 0 1-.85.193 1.376 1.376 0 0 1-.79-.365c-.03-.2-.01-.406.07-.594.25-.156.55-.224.84-.193.3.031.58.16.79.365.07.051.03.565-.06.594ZM1446.83 904.599a9.13 9.13 0 0 1-4.48.231c-.15-.038-.17-.527-.03-.6a9.095 9.095 0 0 1 4.48-.231c.21.035.27.549.03.6ZM1440.28 909.937s0-.289-.01-.657c-.01-.368-.01-.824.02-1.173.03-.349.13-.792.2-1.156.07-.364.13-.644.13-.644.04-.126.53-.148.6-.021.06.222.11.447.14.674.08.414.1.835.08 1.254-.05.417-.16.826-.3 1.218-.14.369-.27.635-.27.635-.08.166-.59.063-.59-.13Z" fill="#7754BE"/><path d="M455.522 376.359ZM703.271 104.287a2.429 2.429 0 1 0 0-4.858 2.429 2.429 0 0 0 0 4.858ZM684.786 144.924a2.429 2.429 0 1 0 0-4.858 2.429 2.429 0 0 0 0 4.858ZM172.71 163.503a2.66 2.66 0 1 0 0-5.32 2.66 2.66 0 0 0 0 5.32ZM1186.66 711.876a2.66 2.66 0 1 0 .001-5.319 2.66 2.66 0 0 0-.001 5.319ZM515.278 248.54c1.397 0 2.529-1.12 2.529-2.503 0-1.382-1.132-2.503-2.529-2.503s-2.529 1.121-2.529 2.503c0 1.383 1.132 2.503 2.529 2.503ZM515.278 289.805a3.492 3.492 0 1 0 0-6.984 3.492 3.492 0 0 0 0 6.984Z" fill="#1D4AC4"/><path d="m753.73 291.73 5.577-1.577-5.577-1.576-1.577-5.577-1.576 5.577-5.577 1.576 5.577 1.577 1.576 5.577 1.577-5.577Z" fill="#7754BE"/><path d="m1431.73 422.73 5.58-1.576-5.58-1.576-1.58-5.578-1.57 5.578-5.58 1.576 5.58 1.576 1.57 5.578 1.58-5.578ZM333.102 942.919a14.553 14.553 0 0 1 0-5.687c.045-.195.534-.193.6 0 .375 1.877.375 3.81 0 5.687-.046.268-.562.297-.6 0Z" fill="#1D4AC4"/><path d="m598.312 624.427 5.578-1.576-5.578-1.576-1.576-5.578-1.577 5.578-5.577 1.576 5.577 1.576 1.577 5.578 1.576-5.578Z" fill="#7754BE"/><path d="M165.412 576.431a2.66 2.66 0 1 0 0-5.32 2.66 2.66 0 0 0 0 5.32ZM172.128 574.221s1.479.428 3.452.906c1.973.478 4.443.99 6.382 1.353s4.418.816 6.43 1.1a87.77 87.77 0 0 0 3.544.43c.69.087.659.575-.036.6 0 0-1.551-.009-3.6-.158a52.373 52.373 0 0 1-12.955-2.476c-1.958-.618-3.4-1.18-3.4-1.18-.896-.347-.829-.868.183-.575Z" fill="#1D4AC4"/><path d="M469.626 845.6a1.598 1.598 0 1 0 0-3.196 1.598 1.598 0 0 0 0 3.196Z" fill="#7754BE"/><path d="M491.036 619.713c1.275 0 2.31-1.023 2.31-2.286 0-1.262-1.035-2.286-2.31-2.286-1.276 0-2.31 1.024-2.31 2.286 0 1.263 1.034 2.286 2.31 2.286ZM154.454 512.659c1.275 0 2.31-1.024 2.31-2.286 0-1.263-1.035-2.286-2.31-2.286-1.276 0-2.31 1.023-2.31 2.286 0 1.262 1.034 2.286 2.31 2.286ZM540.177 759.679a2.429 2.429 0 1 0 0-4.858 2.429 2.429 0 0 0 0 4.858ZM147.624 675.727l5.577-1.577-5.577-1.576-1.576-5.577-1.577 5.577-5.577 1.576 5.577 1.577 1.577 5.577 1.576-5.577ZM556.168 741.687s-1.047.544-2.36 1.367a51.56 51.56 0 0 0-4.059 2.866c-1.182.926-2.671 2.139-3.795 3.208a41.41 41.41 0 0 0-1.915 1.94c-.372.38-.753.073-.462-.38a27.759 27.759 0 0 1 1.749-2.168 25.688 25.688 0 0 1 8.052-6.227c1.416-.722 2.538-1.148 2.538-1.148.689-.269.966.171.252.542ZM552.584 749.087s-1.721 1.477-2.924 2.286c-1.203.809-3.235 1.82-3.235 1.82-.237.1-.5-.306-.332-.5 0 0 1.721-1.478 2.924-2.286 1.203-.808 3.235-1.82 3.235-1.82a.3.3 0 0 1 .416.084c.044.067.06.148.044.226a.297.297 0 0 1-.128.19Z" fill="#1D4AC4"/><path d="M296.598 502.648a1.597 1.597 0 1 0 .001-3.195 1.597 1.597 0 0 0-.001 3.195Z" fill="#7754BE"/><path d="M253.185 903.912a2.429 2.429 0 1 0 0-4.858 2.429 2.429 0 0 0 0 4.858ZM331.737 458.858a2.429 2.429 0 1 0 0-4.858 2.429 2.429 0 0 0 0 4.858ZM141.429 937.858a2.429 2.429 0 1 0 0-4.858 2.429 2.429 0 0 0 0 4.858ZM159.079 919.24s-1.046.543-2.359 1.367a49.874 49.874 0 0 0-4.059 2.865c-1.193.913-2.672 2.139-3.795 3.208-1.123 1.069-1.916 1.941-1.916 1.941-.372.38-.753.072-.461-.381a27.98 27.98 0 0 1 1.748-2.168 25.71 25.71 0 0 1 8.052-6.226c1.417-.722 2.538-1.148 2.538-1.148.687-.271.965.169.252.542ZM155.493 926.635s-1.72 1.478-2.924 2.286-3.234 1.82-3.234 1.82c-.237.1-.506-.306-.332-.5 0 0 1.721-1.478 2.924-2.286 1.203-.808 3.235-1.82 3.235-1.82a.298.298 0 0 1 .407.09.3.3 0 0 1-.076.41Z" fill="#1D4AC4"/><path d="M156.796 812.125a4.28 4.28 0 0 1 0-3.048c.045-.105.535-.1.6 0a4.291 4.291 0 0 1 0 3.048c-.047.142-.561.158-.6 0ZM1519.8 486.312a4.217 4.217 0 0 1 0-3.048c.04-.105.53-.1.6 0 .37.982.37 2.066 0 3.048-.05.142-.57.158-.6 0ZM1120.8 558.312a4.217 4.217 0 0 1 0-3.048c.04-.105.53-.1.6 0 .37.982.37 2.066 0 3.048-.05.142-.57.158-.6 0ZM497.796 507.125a4.28 4.28 0 0 1 0-3.048c.045-.105.535-.1.6 0a4.291 4.291 0 0 1 0 3.048c-.047.142-.561.158-.6 0Z" fill="#7754BE"/><path d="M963.796 854.312a4.28 4.28 0 0 1 0-3.048c.045-.105.535-.1.6 0a4.291 4.291 0 0 1 0 3.048c-.047.142-.561.158-.6 0ZM1282.8 459.125a4.217 4.217 0 0 1 0-3.048c.04-.105.53-.1.6 0 .37.982.37 2.066 0 3.048-.05.142-.57.158-.6 0Z" fill="#1D4AC4"/><path d="M154.653 814.417a2.377 2.377 0 0 1-.847.193 2.43 2.43 0 0 1-.79-.365c-.035-.2-.013-.406.063-.594a1.343 1.343 0 0 1 1.637.172c.072.054.032.565-.063.594ZM1517.65 488.604c-.26.116-.55.181-.84.193a2.375 2.375 0 0 1-.79-.365c-.04-.2-.02-.406.06-.594.25-.157.55-.225.85-.193.29.031.57.159.79.365.07.054.03.565-.07.594ZM1118.65 560.604c-.26.116-.55.181-.84.193a2.375 2.375 0 0 1-.79-.365c-.04-.2-.02-.406.06-.594.25-.157.55-.225.85-.193.29.031.57.159.79.365.07.054.03.565-.07.594ZM495.653 509.417a2.377 2.377 0 0 1-.847.193 2.43 2.43 0 0 1-.79-.365c-.035-.2-.013-.406.063-.594a1.343 1.343 0 0 1 1.637.172c.072.054.032.565-.063.594Z" fill="#7754BE"/><path d="M961.653 856.604a2.377 2.377 0 0 1-.847.193 2.43 2.43 0 0 1-.79-.365c-.035-.2-.013-.406.063-.594a1.343 1.343 0 0 1 1.637.172c.072.054.032.565-.063.594ZM1280.65 461.417c-.26.116-.55.181-.84.193a2.375 2.375 0 0 1-.79-.365c-.04-.2-.02-.406.06-.594.25-.157.55-.225.85-.193.29.031.57.159.79.365.07.054.03.565-.07.594Z" fill="#1D4AC4"/><path d="M163.338 814.477a9.12 9.12 0 0 1-4.48.231c-.156-.038-.179-.527-.031-.6a9.108 9.108 0 0 1 4.48-.231c.212.038.263.552.031.6ZM1526.34 488.664a9.119 9.119 0 0 1-4.48.231c-.16-.038-.18-.527-.03-.6a9.107 9.107 0 0 1 4.48-.231c.21.038.26.552.03.6ZM1127.34 560.664a9.119 9.119 0 0 1-4.48.231c-.16-.038-.18-.527-.03-.6a9.107 9.107 0 0 1 4.48-.231c.21.038.26.552.03.6ZM504.338 509.477a9.12 9.12 0 0 1-4.48.231c-.156-.038-.179-.527-.031-.6a9.108 9.108 0 0 1 4.48-.231c.212.038.263.552.031.6Z" fill="#7754BE"/><path d="M970.338 856.664a9.12 9.12 0 0 1-4.48.231c-.156-.038-.179-.527-.031-.6a9.108 9.108 0 0 1 4.48-.231c.212.038.263.552.031.6ZM1289.34 461.477a9.119 9.119 0 0 1-4.48.231c-.16-.038-.18-.527-.03-.6a9.107 9.107 0 0 1 4.48-.231c.21.038.26.552.03.6Z" fill="#1D4AC4"/><path d="M156.786 819.818s0-.289-.01-.657c-.01-.368-.014-.824.014-1.173.028-.349.129-.792.2-1.156l.129-.644c.041-.126.53-.148.6-.021 0 0 .081.287.147.674.075.414.101.835.078 1.254a5.32 5.32 0 0 1-.307 1.218c-.135.369-.267.635-.267.635-.082.166-.587.063-.584-.13ZM1519.79 494.005s0-.289-.01-.657c-.01-.368-.02-.824.01-1.173.03-.349.13-.792.2-1.156l.13-.644c.04-.126.53-.148.6-.021 0 0 .08.287.15.674.07.414.1.835.07 1.254-.05.417-.15.826-.3 1.218-.14.369-.27.635-.27.635-.08.166-.59.063-.58-.13ZM1120.79 566.005s0-.289-.01-.657c-.01-.368-.02-.824.01-1.173.03-.349.13-.792.2-1.156l.13-.644c.04-.126.53-.148.6-.021 0 0 .08.287.15.674.07.414.1.835.07 1.254-.05.417-.15.826-.3 1.218-.14.369-.27.635-.27.635-.08.166-.59.063-.58-.13ZM497.786 514.818s0-.289-.01-.657c-.01-.368-.014-.824.014-1.173.028-.349.129-.792.2-1.156l.129-.644c.041-.126.53-.148.6-.021 0 0 .081.287.147.674.075.414.101.835.078 1.254a5.32 5.32 0 0 1-.307 1.218c-.135.369-.267.635-.267.635-.082.166-.587.063-.584-.13Z" fill="#7754BE"/><path d="M963.786 862.005s0-.289-.01-.657c-.01-.368-.014-.824.014-1.173.028-.349.129-.792.2-1.156l.129-.644c.041-.126.53-.148.6-.021 0 0 .081.287.147.674.075.414.101.835.078 1.254a5.32 5.32 0 0 1-.307 1.218 6.964 6.964 0 0 1-.267.635c-.082.166-.587.063-.584-.13ZM1282.79 466.818s0-.289-.01-.657c-.01-.368-.02-.824.01-1.173.03-.349.13-.792.2-1.156l.13-.644c.04-.126.53-.148.6-.021 0 0 .08.287.15.674.07.414.1.835.07 1.254-.05.417-.15.826-.3 1.218-.14.369-.27.635-.27.635-.08.166-.59.063-.58-.13ZM796.084 831.18a2.66 2.66 0 1 0 0-5.32 2.66 2.66 0 0 0 0 5.32Z" fill="#1D4AC4"/><path d="m929.636 967.565 5.577-1.577-5.577-1.576-1.576-5.577-1.577 5.577-5.577 1.576 5.577 1.577 1.577 5.577 1.576-5.577ZM1761.63 870.917l5.58-1.577-5.58-1.576-1.58-5.577-1.57 5.577-5.58 1.576 5.58 1.577 1.57 5.577 1.58-5.577Z" fill="#7754BE"/><path d="m289.73 707.73 5.577-1.576-5.577-1.577-1.576-5.577-1.577 5.577-5.577 1.577 5.577 1.576 1.577 5.577 1.576-5.577ZM883.288 981.649a14.553 14.553 0 0 1 0-5.687c.045-.195.535-.193.6 0 .373 1.877.373 3.81 0 5.687-.045.266-.561.297-.6 0ZM1715.28 885.001c-.37-1.877-.37-3.81 0-5.687.05-.195.54-.193.6 0 .37 1.877.37 3.81 0 5.687-.04.266-.56.297-.6 0ZM791.621 833.558s-1.243.909-2.828 2.178a133.802 133.802 0 0 0-4.973 4.222c-1.473 1.313-3.348 3-4.8 4.417-1.452 1.417-2.508 2.541-2.508 2.541-.491.493-.858.17-.45-.393 0 0 .956-1.222 2.326-2.752a52.247 52.247 0 0 1 9.882-8.736 61.938 61.938 0 0 1 3.015-1.972c.816-.498 1.183-.126.336.495ZM569.223 864.278a2.43 2.43 0 1 0-.001-4.86 2.43 2.43 0 0 0 .001 4.86ZM784.886 983.279a2.429 2.429 0 1 0 0-4.858 2.429 2.429 0 0 0 0 4.858ZM1728.53 306.193c1.4 0 2.53-1.121 2.53-2.503 0-1.382-1.13-2.503-2.53-2.503s-2.53 1.121-2.53 2.503c0 1.382 1.13 2.503 2.53 2.503ZM1168.53 535.006c1.4 0 2.53-1.121 2.53-2.503 0-1.382-1.13-2.503-2.53-2.503s-2.53 1.121-2.53 2.503c0 1.382 1.13 2.503 2.53 2.503ZM1635.69 405.4c1.93 0 3.5-1.563 3.5-3.492a3.498 3.498 0 0 0-3.5-3.492 3.49 3.49 0 0 0-3.49 3.492 3.49 3.49 0 0 0 3.49 3.492Z" fill="#1D4AC4"/><path d="m1696.66 427.058 5.58-1.577-5.58-1.576-1.57-5.577-1.58 5.577-5.58 1.576 5.58 1.577 1.58 5.577 1.57-5.577ZM156.502 275.422a1.597 1.597 0 1 0 .001-3.195 1.597 1.597 0 0 0-.001 3.195ZM1737.5 140.196c.88 0 1.6-.715 1.6-1.598a1.601 1.601 0 0 0-3.2 0c0 .883.72 1.598 1.6 1.598Z" fill="#7754BE"/><path d="M158.1 304.497c1.276 0 2.31-1.024 2.31-2.286 0-1.263-1.034-2.286-2.31-2.286s-2.31 1.023-2.31 2.286c0 1.262 1.034 2.286 2.31 2.286ZM1739.1 169.271c1.28 0 2.31-1.024 2.31-2.286a2.295 2.295 0 0 0-2.31-2.286 2.295 2.295 0 0 0-2.31 2.286 2.296 2.296 0 0 0 2.31 2.286ZM303.705 123.672a2.429 2.429 0 1 0 0-4.858 2.429 2.429 0 0 0 0 4.858ZM1317.66 672.045c1.34 0 2.42-1.087 2.42-2.429a2.425 2.425 0 1 0-4.85 0 2.424 2.424 0 0 0 2.43 2.429ZM89.73 297.202l5.577-1.576-5.577-1.577-1.576-5.577-1.577 5.577L81 295.626l5.577 1.576 1.577 5.577 1.576-5.577ZM1670.73 161.976l5.58-1.576-5.58-1.577-1.58-5.577-1.57 5.577-5.58 1.577 5.58 1.576 1.57 5.577 1.58-5.577Z" fill="#1D4AC4"/></svg>