<?xml version="1.0" encoding="UTF-8"?>
<svg id="Layer_1" data-name="Layer 1" xmlns="http://www.w3.org/2000/svg" viewBox="0 0 1160.81 934.26">
  <defs>
    <style>
      .cls-1 {
        opacity: .3;
      }

      .cls-1, .cls-2 {
        fill: #791a96;
      }

      .cls-2 {
        opacity: .3;
      }
    </style>
  </defs>
  <path class="cls-2" d="m72.86,349.42C22.43,333.21-8.58,281.68,2.1,229.8c6.48-31.48,27.01-55.9,80.27-47.02,121.74,20.29-4.35-227.54,173.91-100s311.59,239.13,143.48,466.67c-168.12,227.54-282.61,305.8-365.22,157.97-82.61-147.83,142.03-175.36,186.96-244.93,29.92-46.32-75.12-89.43-148.64-113.07Z"/>
  <path class="cls-2" d="m700.87,389.95c4.9,3.72,118.84-113.04,300,10.14,181.16,123.19-81.16,218.84-81.16,218.84,0,0,366.67,56.52,195.65,169.57-171.01,113.04-424.64,224.64-440.58,69.57s-205.8-176.81-57.97-246.38,63.77-178.26,27.54-191.3c-36.23-13.04-63.77-121.74,56.52-30.43Z"/>
  <path class="cls-1" d="m680.07,136.14S697.74,9.13,824.11.17c0,0,86.44-9.71,217.21,116.67,0,0,42.48,136.96-169.87,191.29s-198.52-117.07-191.37-172Z"/>
</svg>