<?xml version="1.0" encoding="UTF-8"?>
<svg id="Graphic_Elements" data-name="Graphic Elements" xmlns="http://www.w3.org/2000/svg" xmlns:xlink="http://www.w3.org/1999/xlink" viewBox="0 0 1031.66 340.12">
  <defs>
    <style>
      .cls-1 {
        fill: #fff;
      }

      .cls-2 {
        fill: url(#linear-gradient);
      }
    </style>
    <linearGradient id="linear-gradient" x1="448.33" y1="272.62" x2="583.33" y2="272.62" gradientUnits="userSpaceOnUse">
      <stop offset="0" stop-color="#791a96"/>
      <stop offset="1" stop-color="#4c78df"/>
    </linearGradient>
  </defs>
  <circle class="cls-2" cx="515.83" cy="272.62" r="67.5"/>
  <path class="cls-1" d="m558.95,250.96c-1.03-3.87-4.08-6.92-7.96-7.96-7.02-1.88-35.16-1.88-35.16-1.88,0,0-28.14,0-35.16,1.88-3.87,1.04-6.92,4.08-7.96,7.96-1.88,7.02-1.88,21.66-1.88,21.66,0,0,0,14.64,1.88,21.66,1.03,3.87,4.08,6.92,7.96,7.96,7.02,1.88,35.16,1.88,35.16,1.88,0,0,28.14,0,35.16-1.88,3.87-1.04,6.92-4.08,7.96-7.96,1.88-7.02,1.88-21.66,1.88-21.66,0,0,0-14.64-1.88-21.66Zm-52.12,35.16v-27l23.38,13.5-23.38,13.5Z"/>
</svg>